<svg width="174" height="62" viewBox="0 0 174 62" fill="none" xmlns="http://www.w3.org/2000/svg">
<path d="M89.8408 23.1707C89.8408 22.7442 90.2672 22.3178 90.6937 22.3178H93.5367C94.3896 22.3178 95.1004 22.6021 95.5268 23.0285C95.9533 23.455 96.0954 23.8814 96.0954 24.3079C96.0954 25.1608 95.669 25.7294 95.1004 26.0137C95.9533 26.298 96.5219 26.8666 96.5219 28.0038C96.5219 29.4254 95.3847 30.1361 93.5367 30.1361H90.6937C90.2672 30.1361 89.8408 29.7097 89.8408 29.2832V23.1707ZM93.1102 25.4451C93.821 25.4451 94.3896 25.1608 94.3896 24.5922C94.3896 24.0236 93.9632 23.7393 93.2524 23.7393H91.5466V25.4451H93.1102ZM93.5367 28.5725C94.2475 28.5725 94.8161 28.2881 94.8161 27.7195C94.8161 27.1509 94.3896 26.8666 93.5367 26.8666H91.5466V28.5725H93.5367Z" fill="white"/>
<path d="M97.2335 25.0188C97.2335 22.0336 99.5079 19.617 102.777 19.617C105.905 19.617 108.179 22.0336 108.179 24.8766C108.179 27.8618 105.905 30.1362 102.635 30.1362C99.5079 30.2784 97.2335 28.004 97.2335 25.0188ZM105.905 25.0188C105.905 23.1708 104.625 21.7493 102.777 21.7493C100.929 21.7493 99.6501 23.1708 99.6501 25.0188C99.6501 26.7246 100.929 28.2883 102.777 28.2883C104.625 28.2883 105.905 26.7246 105.905 25.0188Z" fill="white"/>
<path d="M109.316 23.7392C109.316 20.0432 112.159 17.058 116.139 17.058C118.129 17.058 119.409 17.4845 120.546 18.3374C120.83 18.4795 121.114 18.906 121.114 19.4746C121.114 20.1854 120.546 20.8961 119.693 20.8961C119.266 20.8961 118.982 20.754 118.84 20.6118C118.129 20.0432 117.276 19.7589 115.997 19.7589C113.865 19.7589 112.301 21.6069 112.301 23.7392C112.301 26.1558 113.865 27.8616 116.281 27.8616C117.276 27.8616 118.271 27.5773 118.982 27.1508V25.3028H116.992C116.281 25.3028 115.713 24.7342 115.713 24.0235C115.713 23.3127 116.281 22.7441 116.992 22.7441H120.261C121.114 22.7441 121.683 23.3127 121.683 24.1656V27.293C121.683 28.1459 121.399 28.7145 120.688 29.1409C119.693 29.8517 118.129 30.4203 116.139 30.4203C112.159 30.4203 109.316 27.5773 109.316 23.7392Z" fill="white"/>
<path d="M122.535 22.1755C122.535 17.6266 126.089 13.9307 131.064 13.9307C136.04 13.9307 139.451 17.6266 139.451 22.0334C139.451 26.5822 135.898 30.2782 130.922 30.2782C125.947 30.4203 122.535 26.7244 122.535 22.1755ZM135.755 22.1755C135.755 19.4746 133.765 17.2002 130.922 17.2002C128.079 17.2002 126.089 19.4746 126.089 22.1755C126.089 24.8764 128.079 27.1508 130.922 27.1508C133.765 27.1508 135.755 25.0185 135.755 22.1755Z" fill="white"/>
<path d="M143.574 14.9259H139.594C138.599 14.9259 137.604 14.0729 137.604 12.9357C137.604 11.9407 138.457 10.9456 139.594 10.9456H151.819C152.814 10.9456 153.809 11.7985 153.809 12.9357C153.809 13.9308 152.956 14.9259 151.819 14.9259H147.839V28.146C147.839 29.2832 146.844 30.2783 145.707 30.2783C144.569 30.2783 143.574 29.4254 143.574 28.146V14.9259Z" fill="white"/>
<path d="M151.392 27.0089L159.211 9.38203C159.779 8.10266 160.774 7.3919 162.054 7.3919H162.338C163.617 7.3919 164.613 8.10266 165.181 9.38203L172.999 27.0089C173.142 27.2932 173.284 27.7196 173.284 28.0039C173.284 29.2833 172.289 30.4205 171.009 30.4205C169.872 30.4205 169.161 29.7098 168.593 28.7147L167.029 25.1609H157.221L155.657 28.8568C155.23 29.8519 154.378 30.4205 153.383 30.4205C152.103 30.4205 151.108 29.4255 151.108 28.1461C151.108 27.7196 151.25 27.2932 151.392 27.0089ZM165.181 20.7542L162.054 13.3623L158.926 20.7542H165.181ZM160.774 5.11747C160.774 4.83316 160.917 4.54886 161.059 4.26456L162.765 1.56367C163.191 0.852909 163.76 0.426453 164.613 0.426453C165.75 0.426453 167.313 1.13721 167.313 1.84797C167.313 2.27443 167.029 2.70088 166.603 2.98519L164.613 4.83316C163.617 5.68607 162.907 5.82823 161.769 5.82823C161.343 5.82823 160.774 5.54392 160.774 5.11747Z" fill="white"/>
<path d="M89.8394 35.1115C89.8394 34.1164 90.6922 33.2635 91.6873 33.2635H92.1138C92.8246 33.2635 93.3931 33.6899 93.8196 34.2586L98.2263 41.3662L102.633 34.1164C103.059 33.5478 103.486 33.2635 104.197 33.2635H104.623C105.618 33.2635 106.471 34.1164 106.471 35.1115V48.3316C106.471 49.3267 105.618 50.1796 104.623 50.1796C103.628 50.1796 102.775 49.3267 102.775 48.3316V39.9446L99.6478 44.92C99.2214 45.4886 98.7949 45.7729 98.0842 45.7729C97.3734 45.7729 96.947 45.3464 96.5205 44.92L93.3932 40.0868V48.3316C93.3932 49.3267 92.5403 50.0374 91.5452 50.0374C90.5501 50.0374 89.8394 49.3267 89.8394 48.3316V35.1115Z" fill="white"/>
<path d="M110.452 48.0473V35.1115C110.452 34.1164 111.304 33.2635 112.3 33.2635H121.539C122.392 33.2635 123.103 33.9743 123.103 34.8272C123.103 35.6801 122.392 36.3908 121.539 36.3908H114.005V39.9446H120.26C121.113 39.9446 121.824 40.6554 121.824 41.5083C121.824 42.3612 121.113 43.072 120.26 43.072H114.005V46.4836H121.539C122.392 46.4836 123.103 47.1944 123.103 48.0473C123.103 48.9002 122.392 49.611 121.539 49.611H112.3C111.162 49.8953 110.452 49.1845 110.452 48.0473Z" fill="white"/>
<path d="M125.661 48.7582C125.235 48.4739 124.951 47.9052 124.951 47.3366C124.951 46.3416 125.661 45.6308 126.656 45.6308C127.083 45.6308 127.367 45.773 127.794 46.0573C128.504 46.6259 129.215 46.9102 129.926 46.9102C131.348 46.9102 132.2 46.0573 132.2 44.2093V35.2537C132.2 34.2587 133.053 33.4057 134.048 33.4057C135.043 33.4057 135.896 34.2587 135.896 35.2537V44.2093C135.896 46.1994 135.328 47.6209 134.333 48.616C133.338 49.6111 131.774 50.1797 130.068 50.1797C128.078 50.1797 126.657 49.4689 125.661 48.7582Z" fill="white"/>
<path d="M138.882 41.6506C138.882 36.9596 142.578 32.9793 147.695 32.9793C152.813 32.9793 156.509 36.8174 156.509 41.5084C156.509 46.1994 152.813 50.0375 147.695 50.0375C142.436 50.1797 138.882 46.3416 138.882 41.6506ZM152.671 41.6506C152.671 38.8075 150.538 36.3909 147.695 36.3909C144.71 36.3909 142.72 38.6654 142.72 41.5084C142.72 44.3515 144.852 46.768 147.695 46.768C150.538 46.9102 152.671 44.4936 152.671 41.6506Z" fill="white"/>
<path d="M159.635 35.2537C159.635 34.2587 160.488 33.4057 161.483 33.4057H167.169C169.301 33.4057 170.865 33.9743 172.002 35.1116C172.855 35.9645 173.424 37.386 173.424 38.9497C173.424 41.5084 172.144 43.2142 170.154 43.925L172.713 47.0523C173.139 47.4788 173.282 47.9052 173.282 48.4739C173.282 49.4689 172.429 50.1797 171.576 50.1797C170.723 50.1797 170.154 49.7532 169.728 49.1846L166.174 44.6357H163.331V48.1895C163.331 49.1846 162.478 50.0375 161.483 50.0375C160.488 50.0375 159.635 49.1846 159.635 48.1895V35.2537ZM167.027 41.3663C168.733 41.3663 169.87 40.3712 169.87 39.0918C169.87 37.5282 168.733 36.6752 167.027 36.6752H163.473V41.3663H167.027Z" fill="white"/>
<path d="M89.8408 54.0178C89.8408 53.4491 90.2672 53.0227 90.8359 53.0227H93.3946C95.3847 53.0227 96.664 54.3021 96.664 56.0079C96.664 57.998 95.1004 58.9931 93.1102 58.9931H91.6887V60.6989C91.6887 61.2675 91.2623 61.694 90.6937 61.694C90.1251 61.694 89.6986 61.2675 89.6986 60.6989V54.0178H89.8408ZM93.2524 57.4294C94.2475 57.4294 94.8161 56.8608 94.8161 56.15C94.8161 55.2971 94.2475 54.8707 93.2524 54.8707H91.8309V57.5716H93.2524V57.4294Z" fill="white"/>
<path d="M96.9487 60.4147L99.9339 53.5914C100.076 53.1649 100.503 52.8806 101.071 52.8806H101.213C101.782 52.8806 102.066 53.1649 102.35 53.5914L105.336 60.4147C105.336 60.5569 105.478 60.699 105.478 60.8412C105.478 61.4098 105.051 61.6941 104.625 61.6941C104.198 61.6941 103.914 61.4098 103.772 60.9833L103.203 59.5618H99.3653L98.7967 60.9833C98.6545 61.4098 98.3703 61.5519 97.9438 61.5519C97.5174 61.5519 97.0909 61.1255 97.0909 60.699C96.8066 60.699 96.9487 60.5569 96.9487 60.4147ZM102.35 57.9981L101.213 55.1551L100.076 57.9981H102.35Z" fill="white"/>
<path d="M106.9 54.0178C106.9 53.4491 107.326 53.0227 107.895 53.0227H110.88C112.017 53.0227 112.87 53.307 113.439 53.8756C113.865 54.3021 114.15 55.0128 114.15 55.8657C114.15 57.2872 113.439 57.998 112.444 58.4245L113.723 59.9881C113.865 60.2724 114.007 60.4146 114.007 60.6989C114.007 61.2675 113.581 61.5518 113.155 61.5518C112.728 61.5518 112.444 61.4097 112.159 61.1254L110.311 58.8509H108.748V60.6989C108.748 61.2675 108.321 61.694 107.753 61.694C107.184 61.694 106.758 61.2675 106.758 60.6989V54.0178H106.9ZM110.738 57.2872C111.733 57.2872 112.159 56.8608 112.159 56.0079C112.159 55.155 111.591 54.7285 110.738 54.7285H108.89V57.1451H110.738V57.2872Z" fill="white"/>
<path d="M115.286 60.4147L118.271 53.5914C118.413 53.1649 118.84 52.8806 119.408 52.8806H119.55C120.119 52.8806 120.403 53.1649 120.688 53.5914L123.673 60.4147C123.673 60.5569 123.815 60.699 123.815 60.8412C123.815 61.4098 123.388 61.6941 122.962 61.6941C122.535 61.6941 122.251 61.4098 122.109 60.9833L121.54 59.5618H117.702L117.134 60.9833C116.992 61.4098 116.707 61.5519 116.281 61.5519C115.854 61.5519 115.428 61.1255 115.428 60.699C115.144 60.699 115.286 60.5569 115.286 60.4147ZM120.688 57.9981L119.55 55.1551L118.413 57.9981H120.688Z" fill="white"/>
<path d="M130.922 54.7285H129.075C128.648 54.7285 128.222 54.3021 128.222 53.8756C128.222 53.4491 128.648 53.0227 129.075 53.0227H134.618C135.045 53.0227 135.471 53.4491 135.471 53.8756C135.471 54.3021 135.045 54.7285 134.618 54.7285H132.77V60.6989C132.77 61.2675 132.344 61.694 131.775 61.694C131.207 61.694 130.78 61.2675 130.78 60.6989V54.7285H130.922Z" fill="white"/>
<path d="M136.183 57.4295C136.183 55.0129 138.173 52.8806 140.732 52.8806C143.433 52.8806 145.281 54.8708 145.281 57.2874C145.281 59.7039 143.291 61.6941 140.732 61.6941C138.031 61.8362 136.183 59.8461 136.183 57.4295ZM143.291 57.4295C143.291 55.8658 142.153 54.7286 140.732 54.7286C139.168 54.7286 138.173 55.8658 138.173 57.4295C138.173 58.851 139.31 60.1304 140.732 60.1304C142.295 59.9882 143.291 58.851 143.291 57.4295Z" fill="white"/>
<path d="M146.986 54.0178C146.986 53.4491 147.412 53.0227 147.981 53.0227H150.397C153.098 53.0227 154.946 54.8707 154.946 57.2872C154.946 59.7038 153.098 61.5518 150.397 61.5518H147.981C147.412 61.5518 146.986 61.1254 146.986 60.5567V54.0178ZM150.397 59.9881C151.961 59.9881 152.956 58.9931 152.956 57.4294C152.956 55.8657 151.961 54.8707 150.397 54.8707H148.976V60.1303H150.397V59.9881Z" fill="white"/>
<path d="M156.225 57.4295C156.225 55.0129 158.215 52.8806 160.774 52.8806C163.475 52.8806 165.323 54.8708 165.323 57.2874C165.323 59.7039 163.332 61.6941 160.774 61.6941C158.215 61.8362 156.225 59.8461 156.225 57.4295ZM163.475 57.4295C163.475 55.8658 162.337 54.7286 160.916 54.7286C159.352 54.7286 158.357 55.8658 158.357 57.4295C158.357 58.851 159.494 60.1304 160.916 60.1304C162.337 59.9882 163.475 58.851 163.475 57.4295Z" fill="white"/>
<path d="M166.888 60.699C166.746 60.5569 166.462 60.2725 166.462 59.9882C166.462 59.5618 166.888 59.1353 167.315 59.1353C167.599 59.1353 167.741 59.2775 167.883 59.2775C168.594 59.7039 169.305 59.9882 170.158 59.9882C170.868 59.9882 171.437 59.7039 171.437 59.1353C171.437 58.7089 171.153 58.4246 169.731 57.9981C168.025 57.5717 166.888 57.1452 166.888 55.2972C166.888 53.7336 168.167 52.7385 169.873 52.7385C170.868 52.7385 171.863 53.0228 172.574 53.4493C172.716 53.5914 173.001 53.8757 173.001 54.16C173.001 54.5865 172.574 55.0129 172.148 55.0129C172.006 55.0129 171.863 55.0129 171.721 54.8708C171.153 54.4443 170.442 54.3022 169.873 54.3022C169.162 54.3022 168.736 54.5865 168.736 55.0129C168.736 55.5815 169.162 55.7237 170.584 56.1501C172.29 56.5766 173.285 57.2874 173.285 58.7089C173.285 60.4147 172.006 61.4098 170.158 61.4098C169.02 61.8362 167.883 61.4098 166.888 60.699Z" fill="white"/>
<path d="M76.052 0.284195H74.9148V61.836H76.052V0.284195Z" fill="white"/>
<path d="M5.25962 52.7384H4.1224L3.69594 51.6011H1.56366L1.13722 52.7384H0L1.99012 47.4787H3.12734L5.25962 52.7384ZM3.41164 50.7482L2.70088 48.7581L1.99012 50.7482H3.41164Z" fill="white"/>
<path d="M5.5437 52.7385V47.621H6.68092V51.8855H9.23966V52.7385H5.5437Z" fill="white"/>
<path d="M13.0778 50.8904L14.0728 51.1747C13.9307 51.7433 13.6464 52.1697 13.3621 52.454C12.9356 52.7384 12.5092 52.8805 11.9406 52.8805C11.2298 52.8805 10.6612 52.5962 10.2347 52.1697C9.80829 51.7433 9.52399 51.0325 9.52399 50.1796C9.52399 49.3267 9.80829 48.6159 10.2347 48.1895C10.6612 47.763 11.2298 47.4787 11.9406 47.4787C12.6513 47.4787 13.0778 47.6209 13.5042 48.0473C13.7886 48.3316 13.9307 48.6159 14.0728 49.0424L13.0778 49.3267C13.0778 49.0424 12.9356 48.9002 12.6513 48.6159C12.5092 48.4738 12.2249 48.3316 11.9406 48.3316C11.5141 48.3316 11.2298 48.4738 10.9455 48.7581C10.6612 49.0424 10.519 49.4689 10.519 50.0375C10.519 50.7482 10.6612 51.1747 10.9455 51.459C11.2298 51.7433 11.5141 51.8854 11.9406 51.8854C12.2249 51.8854 12.5092 51.7433 12.6513 51.6011C12.7935 51.6011 12.9356 51.3168 13.0778 50.8904Z" fill="white"/>
<path d="M19.4757 52.7384H18.3385L17.912 51.6011H15.7797L15.3533 52.7384H14.2161L16.2062 47.4787H17.3434L19.4757 52.7384ZM17.4856 50.7482L16.7748 48.7581L16.064 50.7482H17.4856Z" fill="white"/>
<path d="M19.7589 52.7385V47.621H20.754V51.8855H23.3127V52.7385H19.7589Z" fill="white"/>
<path d="M23.8824 47.621H25.8725C26.299 47.621 26.5833 47.621 26.8676 47.7631C27.1519 47.9053 27.4362 48.0474 27.7205 48.1896C28.0048 48.4739 28.1469 48.7582 28.2891 49.0425C28.4312 49.3268 28.4312 49.7533 28.4312 50.3219C28.4312 50.7483 28.4312 51.1748 28.2891 51.4591C28.1469 51.8855 28.0048 52.1698 27.7205 52.312C27.5783 52.4542 27.294 52.5963 27.0097 52.7385C26.7254 52.8806 26.4411 52.8806 26.0147 52.8806H24.0245V47.621H23.8824ZM24.8774 48.4739V51.8855H25.7303C26.0146 51.8855 26.299 51.8855 26.299 51.8855C26.4411 51.8855 26.5833 51.7434 26.7254 51.7434C26.8676 51.6012 26.8676 51.4591 27.0097 51.1748C27.0097 50.8905 27.1519 50.6062 27.1519 50.1797C27.1519 49.7533 27.1519 49.469 27.0097 49.1847C26.8676 49.0425 26.8676 48.7582 26.7254 48.616C26.5833 48.4739 26.4411 48.4739 26.299 48.3317C26.1568 48.3317 25.8725 48.3317 25.446 48.3317H24.8774V48.4739Z" fill="white"/>
<path d="M28.9986 47.0524L29.4251 46.0573H30.5623L29.5672 47.0524H28.9986ZM28.7143 47.621H29.7094V52.7385H28.7143V47.621Z" fill="white"/>
<path d="M35.2544 52.7384H34.1172L33.6907 51.6011H31.5584L31.132 52.7384H29.9948L31.9849 47.4787H33.1221L35.2544 52.7384ZM33.2643 50.7482L32.5535 48.7581L31.8427 50.7482H33.2643Z" fill="white"/>
<path d="M36.9595 52.7385V47.621H38.5232L39.3761 51.1748L40.3712 47.621H41.9349V52.7385H40.9398V48.616L39.9447 52.7385H38.9497L37.9546 48.616V52.7385H36.9595Z" fill="white"/>
<path d="M47.479 52.7384H46.3418L45.9153 51.6011H43.783L43.3566 52.7384H42.2194L44.2095 47.4787H45.3467L47.479 52.7384ZM45.4888 50.7482L44.7781 48.7581L44.0673 50.7482H45.4888Z" fill="white"/>
<path d="M48.3315 52.7385V50.6062L46.4835 47.621H47.7629L48.9001 49.6111L50.1795 47.621H51.3167L49.4687 50.6062V52.7385H48.3315Z" fill="white"/>
<path d="M51.3171 50.1797C51.3171 49.6111 51.4593 49.1847 51.6015 48.9004C51.7436 48.616 51.8857 48.3317 52.0279 48.1896C52.1701 47.9053 52.4544 47.7631 52.7387 47.7631C53.023 47.621 53.4494 47.621 53.8759 47.621C54.5867 47.621 55.2974 47.9053 55.7239 48.3317C56.1503 48.7582 56.4346 49.469 56.4346 50.3219C56.4346 51.1748 56.1503 51.8855 55.7239 52.312C55.2974 52.7385 54.5867 53.0228 53.8759 53.0228C53.1651 53.0228 52.4544 52.7385 52.0279 52.312C51.6014 51.7434 51.3171 51.0326 51.3171 50.1797ZM52.4544 50.1797C52.4544 50.7483 52.5965 51.1748 52.8808 51.4591C53.1651 51.7434 53.4494 51.8855 53.8759 51.8855C54.3024 51.8855 54.5866 51.7434 54.8709 51.4591C55.1552 51.1748 55.2974 50.7483 55.2974 50.0376C55.2974 49.469 55.1552 49.0425 54.8709 48.7582C54.5866 48.4739 54.3024 48.3317 53.8759 48.3317C53.4494 48.3317 53.023 48.4739 52.8808 48.7582C52.5965 49.1847 52.4544 49.6111 52.4544 50.1797Z" fill="white"/>
<path d="M57.0023 52.7384V47.4787H59.2768C59.8454 47.4787 60.2718 47.4787 60.5561 47.6209C60.8404 47.763 60.9826 47.9052 61.1247 48.1895C61.2669 48.4738 61.409 48.7581 61.409 49.0424C61.409 49.4689 61.2669 49.7532 61.1247 50.0375C60.8404 50.3218 60.5561 50.4639 60.1297 50.4639C60.414 50.6061 60.5561 50.7482 60.6983 50.8904C60.8404 51.0325 60.9826 51.3168 61.2669 51.7433L61.9776 52.7384H60.6983L59.9875 51.6011C59.7032 51.1747 59.5611 50.8904 59.4189 50.8904C59.2768 50.7482 59.2768 50.7482 59.1346 50.6061C58.9924 50.6061 58.8503 50.6061 58.566 50.6061H58.4238V52.7384H57.0023ZM57.9974 49.7532H58.7082C59.2768 49.7532 59.561 49.7532 59.7032 49.7532C59.8453 49.7532 59.9875 49.611 59.9875 49.4689C60.1297 49.3267 60.1297 49.1846 60.1297 49.0424C60.1297 48.9003 60.1297 48.7581 59.9875 48.6159C59.8454 48.4738 59.7032 48.4738 59.5611 48.4738C59.4189 48.4738 59.2768 48.4738 58.8503 48.4738H57.9974V49.7532Z" fill="white"/>
<path d="M51.743 60.2725H50.7479V61.2676H51.743V60.2725Z" fill="white"/>
<path d="M3.41167 56.15H5.25965C5.68611 56.15 5.97041 56.15 6.25471 56.2921C6.53901 56.4343 6.82332 56.5764 6.96547 56.7186C7.24977 57.0029 7.39193 57.2872 7.39193 57.5715C7.53408 57.8558 7.53409 58.2823 7.53409 58.8509C7.53409 59.2773 7.53408 59.7038 7.39193 59.9881C7.24978 60.4145 7.10763 60.6989 6.82333 60.841C6.68118 60.9832 6.39687 61.1253 6.11257 61.2675C5.82827 61.4096 5.54395 61.4096 5.25965 61.4096H3.26953V56.15H3.41167ZM4.40673 57.0029V60.4146H5.11749C5.40179 60.4146 5.68611 60.4146 5.68611 60.4146C5.82826 60.4146 5.97042 60.2724 6.11257 60.2724C6.25472 60.1302 6.25472 59.9881 6.39687 59.8459C6.39687 59.5616 6.53901 59.2773 6.53901 58.8509C6.53901 58.4244 6.53902 58.1401 6.39687 57.998C6.25472 57.8558 6.25472 57.5715 6.11257 57.4294C5.97042 57.2872 5.82826 57.2872 5.68611 57.1451C5.54396 57.1451 5.25965 57.1451 4.83319 57.1451H4.40673V57.0029Z" fill="white"/>
<path d="M8.24548 61.2675V56.15H12.0836V57.0029H9.38268V58.1401H11.9414V58.993H9.38268V60.4146H12.2257V61.2675H8.24548Z" fill="white"/>
<path d="M14.501 56.1501H16.4912C16.9176 56.1501 17.2019 56.1501 17.3441 56.1501C17.4862 56.1501 17.7705 56.2923 17.9127 56.2923C18.0548 56.4344 18.197 56.5766 18.3391 56.7187C18.4813 56.8609 18.4813 57.1452 18.4813 57.2873C18.4813 57.5716 18.4813 57.7138 18.3391 57.9981C18.197 58.1402 18.0548 58.2824 17.7705 58.4245C18.0548 58.5667 18.3391 58.7088 18.4813 58.851C18.6234 59.1353 18.7656 59.2774 18.7656 59.5617C18.7656 59.846 18.7656 59.9882 18.6234 60.2725C18.4813 60.5568 18.3391 60.699 18.197 60.8411C18.0548 60.9833 17.7705 61.1254 17.4862 61.1254C17.3441 61.1254 16.9176 61.1254 16.2069 61.1254H14.501V56.1501ZM15.4961 57.003V58.1402H16.2069C16.6333 58.1402 16.9176 58.1402 16.9176 58.1402C17.0598 58.1402 17.2019 57.9981 17.3441 57.9981C17.4862 57.8559 17.4862 57.7138 17.4862 57.5716C17.4862 57.4295 17.4862 57.2873 17.3441 57.1452C17.2019 57.003 17.0598 57.003 16.9176 57.003C16.7755 57.003 16.4912 57.003 16.0647 57.003H15.4961ZM15.4961 58.9931V60.4147H16.4912C16.9176 60.4147 17.0598 60.4147 17.2019 60.4147C17.3441 60.4147 17.4862 60.2725 17.6284 60.2725C17.7705 60.1304 17.7705 59.9882 17.7705 59.846C17.7705 59.7039 17.7705 59.5617 17.6284 59.4196C17.4862 59.2774 17.4862 59.2774 17.3441 59.1353C17.2019 59.1353 16.9176 58.9931 16.4912 58.9931H15.4961Z" fill="white"/>
<path d="M19.1906 58.7087C19.1906 58.1401 19.3327 57.7137 19.4749 57.4294C19.617 57.1451 19.7592 57.0029 19.9013 56.7186C20.0435 56.5764 20.3278 56.2921 20.6121 56.2921C20.8964 56.15 21.3228 56.15 21.7493 56.15C22.4601 56.15 23.1708 56.4343 23.5972 56.8608C24.0237 57.2872 24.308 57.998 24.308 58.8509C24.308 59.7038 24.0237 60.2724 23.5972 60.841C23.1708 61.2675 22.6022 61.5518 21.7493 61.5518C21.0385 61.5518 20.3278 61.2675 19.9013 60.841C19.3327 60.1302 19.1906 59.5616 19.1906 58.7087ZM20.1856 58.7087C20.1856 59.2773 20.3278 59.7038 20.6121 59.9881C20.8964 60.2724 21.1807 60.4146 21.6071 60.4146C22.0336 60.4146 22.3179 60.2724 22.6022 59.9881C22.8865 59.7038 23.0286 59.2773 23.0286 58.7087C23.0286 58.1401 22.8865 57.7137 22.6022 57.4294C22.3179 57.1451 22.0336 57.0029 21.6071 57.0029C21.1807 57.0029 20.8964 57.1451 20.6121 57.4294C20.3278 57.5715 20.1856 57.998 20.1856 58.7087Z" fill="white"/>
<path d="M27.0083 59.4196V58.4245H29.2827V60.4147C28.9984 60.5568 28.7141 60.8411 28.2877 60.9833C27.8612 61.1254 27.4348 61.2676 27.0083 61.2676C26.4397 61.2676 26.0133 61.1254 25.5868 60.9833C25.1603 60.699 24.876 60.4147 24.7339 59.9882C24.5917 59.5617 24.4496 59.1353 24.4496 58.5667C24.4496 57.9981 24.5917 57.5716 24.7339 57.1452C25.0182 56.7187 25.3025 56.4344 25.7289 56.1501C26.0132 56.008 26.4397 55.8658 27.0083 55.8658C27.5769 55.8658 28.1455 56.0079 28.572 56.2923C28.9984 56.5766 29.1406 56.8609 29.2827 57.4295L28.2877 57.5716C28.2877 57.2873 28.1455 57.1452 27.8612 57.003C27.7191 56.8609 27.4348 56.7187 27.1505 56.7187C26.724 56.7187 26.2976 56.8609 26.0133 57.1452C25.729 57.4295 25.5868 57.8559 25.5868 58.4245C25.5868 58.9931 25.729 59.4196 26.0133 59.8461C26.2976 60.1304 26.5819 60.2725 27.0083 60.2725C27.2926 60.2725 27.4348 60.2725 27.7191 60.1304C28.0034 59.9882 28.1455 59.9882 28.2877 59.8461V59.1353H27.0083V59.4196Z" fill="white"/>
<path d="M29.7103 58.7087C29.7103 58.1401 29.8524 57.7137 29.9946 57.4294C30.1367 57.1451 30.2789 57.0029 30.421 56.7186C30.5632 56.5764 30.8475 56.2921 31.1318 56.2921C31.4161 56.15 31.8426 56.15 32.269 56.15C32.9798 56.15 33.6905 56.4343 34.117 56.8608C34.5434 57.2872 34.8277 57.998 34.8277 58.8509C34.8277 59.7038 34.5434 60.2724 34.117 60.841C33.6905 61.2675 33.1219 61.5518 32.269 61.5518C31.5582 61.5518 30.8475 61.2675 30.421 60.841C29.9946 60.1302 29.7103 59.5616 29.7103 58.7087ZM30.8475 58.7087C30.8475 59.2773 30.9896 59.7038 31.2739 59.9881C31.5583 60.2724 31.8426 60.4146 32.269 60.4146C32.6955 60.4146 32.9798 60.2724 33.2641 59.9881C33.5484 59.7038 33.6905 59.2773 33.6905 58.7087C33.6905 58.1401 33.5484 57.7137 33.2641 57.4294C32.9798 57.1451 32.6955 57.0029 32.269 57.0029C31.8426 57.0029 31.5583 57.1451 31.2739 57.4294C30.9896 57.5715 30.8475 57.998 30.8475 58.7087Z" fill="white"/>
<path d="M36.3905 61.2675V57.0029H34.8268V56.15H38.9492V57.0029H37.3856V61.2675H36.3905Z" fill="white"/>
<path d="M43.9246 61.2675H42.7874L42.3609 60.1302H40.3708L39.9443 61.2675H38.8071L40.7972 56.15H41.9345L43.9246 61.2675ZM42.0766 59.1352L41.3658 57.2872L40.6551 59.1352H42.0766ZM40.9394 55.5814L41.3658 54.5863H42.5031L41.508 55.5814H40.9394Z" fill="white"/>
<path d="M45.9149 56.15H47.7629C48.1893 56.15 48.4737 56.15 48.758 56.2921C49.0423 56.4343 49.3266 56.5764 49.4687 56.7186C49.6109 57.0029 49.8952 57.2872 49.8952 57.5715C50.0373 57.8558 50.0373 58.2823 50.0373 58.8509C50.0373 59.2773 50.0373 59.7038 49.8952 59.9881C49.753 60.4145 49.6109 60.6989 49.3266 60.841C49.1844 60.9832 48.9001 61.1253 48.6158 61.2675C48.3315 61.4096 48.0472 61.4096 47.7629 61.4096H45.7728V56.15H45.9149ZM46.91 57.0029V60.4146H47.6207C47.905 60.4146 48.0472 60.4146 48.1894 60.4146C48.3315 60.4146 48.4737 60.2724 48.6158 60.2724C48.758 60.1302 48.758 59.9881 48.9001 59.8459C48.9001 59.5616 49.0422 59.2773 49.0422 58.8509C49.0422 58.4244 49.0423 58.1401 48.9001 57.998C48.758 57.8558 48.758 57.5715 48.6158 57.4294C48.4737 57.2872 48.3315 57.2872 48.1894 57.1451C48.0472 57.1451 47.7629 57.1451 47.3364 57.1451H46.91V57.0029Z" fill="white"/>
<path d="M55.7237 59.2776L56.7187 59.5619C56.5766 60.1305 56.2923 60.5569 56.008 60.8412C55.5815 61.1255 55.1551 61.2677 54.5865 61.2677C53.8757 61.2677 53.3071 60.9834 52.8806 60.5569C52.4542 60.1305 52.1699 59.4197 52.1699 58.7089C52.1699 57.856 52.4542 57.1453 52.8806 56.7188C53.3071 56.2924 53.8757 56.0081 54.5865 56.0081C55.1551 56.0081 55.7236 56.1502 56.1501 56.5767C56.4344 56.861 56.5766 57.1453 56.7187 57.5717L55.7237 57.856C55.7237 57.5717 55.5815 57.4296 55.2972 57.2874C55.1551 57.1453 54.8708 57.0031 54.5865 57.0031C54.16 57.0031 53.8757 57.1453 53.5914 57.4296C53.3071 57.7139 53.3071 58.1403 53.3071 58.7089C53.3071 59.4197 53.4492 59.8462 53.5914 60.1305C53.8757 60.4148 54.16 60.5569 54.4443 60.5569C54.7286 60.5569 55.0129 60.4148 55.1551 60.2726C55.4394 59.9883 55.5815 59.704 55.7237 59.2776Z" fill="white"/>
<path d="M58.2815 60.2725H57.2865V61.2676H58.2815V60.2725Z" fill="white"/>
<path d="M20.7536 24.7346C20.8957 24.8767 21.3222 24.5924 21.3222 24.4503C21.1801 24.166 21.3222 23.5974 21.7487 23.5974V23.4552C21.7487 23.4552 21.0379 23.4552 20.8958 23.8817C20.8958 23.8817 20.3271 23.313 20.185 23.313C20.0428 23.4552 20.3272 24.166 20.3272 24.166C19.9007 24.0238 19.6164 24.7346 19.6164 24.7346L19.7585 24.8767C19.9007 24.3081 20.6114 24.4503 20.7536 24.7346Z" fill="white"/>
<path d="M26.4405 29.5677C26.014 29.9942 25.8719 30.5628 25.8719 31.1314C26.4405 31.1314 26.867 30.8471 27.2934 30.4206C27.7199 29.9942 27.862 29.4256 27.862 28.857C27.2934 28.857 26.8669 29.1413 26.4405 29.5677Z" fill="white"/>
<path d="M41.2247 24.0237C41.2247 24.0237 41.509 23.3129 41.3669 23.1708C41.2247 23.1708 40.6561 23.7394 40.6561 23.7394C40.514 23.3129 39.8032 23.3129 39.8032 23.3129V23.4551C40.2297 23.4551 40.3718 24.1659 40.2297 24.308C40.2297 24.4502 40.6561 24.7345 40.7983 24.5923C40.9404 24.308 41.509 24.1659 41.7933 24.5923L41.9355 24.4502C41.9355 24.5923 41.6512 24.0237 41.2247 24.0237Z" fill="white"/>
<path d="M35.1107 29.5676C34.6843 29.1412 34.1157 28.999 33.6892 28.999C33.6892 29.5676 33.8314 30.1362 34.2578 30.5627C34.6843 30.9892 35.1107 31.2735 35.6793 31.2735C35.6793 30.5627 35.395 29.9941 35.1107 29.5676Z" fill="white"/>
<path d="M40.3714 24.5923C39.3764 24.0237 38.097 24.1658 37.5284 24.8766C36.9598 25.7295 37.3862 26.7246 38.3813 27.4353C37.6705 27.4353 36.8176 26.5824 36.8176 26.5824C36.3912 27.2932 37.1019 27.7196 37.6705 27.8618C37.5284 27.8618 37.5284 28.0039 37.3862 28.0039C36.8176 27.8618 36.6755 28.1461 36.6755 28.1461C36.5333 28.1461 35.3961 26.8667 34.5432 26.0138L35.254 25.8717C34.6854 24.5923 33.1217 24.308 32.1266 23.4551C31.4158 22.8865 32.2688 22.6022 32.4109 22.7443C34.4011 24.308 36.1069 23.3129 36.1069 23.3129C34.6853 22.8865 34.1167 21.3228 34.1167 21.3228C36.9598 22.8865 39.0921 21.0385 39.0921 21.0385C37.2441 21.3228 35.8226 19.617 35.8226 19.617C38.6656 20.3277 40.7979 18.3376 40.7979 18.3376C39.6607 18.4798 37.1019 17.3425 37.1019 17.3425C41.3665 17.2004 41.7929 14.2152 41.7929 14.2152C40.6557 14.926 37.5284 14.6417 37.5284 14.6417C41.9351 13.078 41.6508 9.38203 41.6508 9.38203C40.6557 10.8036 36.3912 12.0829 36.3912 12.0829C35.254 12.5094 34.2589 13.5044 34.2589 14.6417C34.2589 15.2103 33.6903 15.4946 33.2638 15.4946C32.1266 15.4946 32.1266 13.7887 32.1266 13.078C32.1266 11.9408 32.1266 10.5192 31.2737 10.5192H29.5679C29.2836 10.5192 28.715 10.5192 28.5728 10.8036C28.1464 11.3722 28.1464 12.6515 28.4307 12.3672C28.4307 12.3672 29.1414 12.2251 29.5679 12.3672C30.1365 12.5094 29.71 14.2152 29.71 14.6417C29.71 15.0681 29.2836 15.6367 28.715 15.6367C28.1464 15.6367 27.7199 15.2103 27.7199 14.7838C27.7199 13.5044 26.7248 12.5094 25.7298 12.2251C25.7298 12.2251 21.3231 10.8036 20.4702 9.52419C20.4702 9.52419 20.1859 13.2201 24.5926 14.7838C24.5926 14.7838 21.4652 15.0681 20.1859 14.2152C20.1859 14.2152 20.7545 17.3425 25.019 17.4847C25.019 17.4847 22.176 18.4798 21.1809 18.3376C21.1809 18.3376 23.171 20.612 26.1562 19.9013C26.1562 19.9013 24.4504 21.3228 22.6024 21.0385C22.6024 21.0385 24.7347 22.8865 27.5777 21.3228C27.5777 21.3228 27.0092 22.7443 25.5876 23.1708C25.5876 23.1708 27.2934 24.308 29.2836 22.6022C29.5679 22.3179 30.2787 22.6022 29.5679 23.3129C28.4307 24.1658 27.0092 24.308 26.2984 25.7295L27.1513 25.8717C26.2984 26.7246 25.019 28.0039 25.019 28.0039C25.019 28.0039 24.8769 27.7196 24.3083 27.8618L24.1661 27.7196C24.7347 27.5775 25.4455 27.151 25.019 26.4403C25.019 26.4403 24.1661 27.4353 23.4554 27.2932C24.4504 26.5824 24.7347 25.5874 24.3083 24.7344C23.7396 23.8815 22.4603 23.7394 21.4652 24.4501C20.4701 25.0187 20.0437 26.2981 20.4702 27.0089C20.8966 27.7196 22.0338 28.0039 23.1711 27.4353C22.7446 28.0039 21.8917 28.2882 21.6074 28.4304C21.6074 28.4304 22.176 29.5676 23.4554 28.0039C23.5975 28.0039 23.5975 28.1461 23.5975 28.1461C23.3132 28.4304 23.171 28.8569 23.4554 29.1412C23.4554 29.1412 23.3132 29.8519 24.1661 29.8519C24.1661 29.8519 24.4504 30.2784 25.019 29.9941C25.4455 30.9891 25.3033 31.9842 25.3033 32.4107H26.4405C26.2984 31.9842 26.2984 30.4205 25.4455 28.999C25.5876 28.8568 25.7298 28.7147 25.5876 28.4304C25.5876 28.4304 27.1513 27.4353 28.2885 26.7246L28.4307 27.4353C28.8571 26.8667 29.4257 26.5824 29.9943 26.2981C29.2836 27.2932 28.8571 28.4304 29.1414 29.8519C29.1414 29.8519 29.2836 29.2833 30.2787 29.1412C30.2787 29.1412 28.9993 30.7048 31.1315 33.8322C33.2638 30.7048 31.9845 29.1412 31.9845 29.1412C32.9795 29.2833 33.1217 29.8519 33.1217 29.8519C33.2638 28.2882 32.9795 27.151 32.1266 26.156C32.8374 26.2981 33.406 26.7246 33.8324 27.2932L33.9746 26.5824C35.1118 27.2932 36.6755 28.2882 36.6755 28.2882C36.5333 28.4304 36.6755 28.7147 36.8176 28.8569C35.9647 30.2784 35.9647 31.6999 35.8226 32.1263H36.9598C37.1019 31.5577 36.9598 30.7048 37.2441 29.7098C37.8127 29.9941 38.097 29.4255 38.097 29.4255C38.9499 29.4255 38.8078 28.7147 38.8078 28.7147C39.0921 28.5725 38.9499 28.1461 38.6656 27.8618C38.8078 27.8618 38.8078 27.7196 38.9499 27.7196C40.2293 29.1412 40.7979 28.1461 40.7979 28.1461C40.5136 28.0039 39.6607 27.8618 39.2342 27.151C40.2293 27.7196 41.3665 27.5775 41.9351 26.7246C41.793 26.4403 41.3665 25.3031 40.3714 24.5923ZM22.8867 27.4353C22.4603 27.7196 21.7495 27.5775 21.1809 26.7246C20.6123 25.8717 20.6123 25.0187 21.0388 24.7344C21.4652 24.4501 22.3181 24.8766 22.7446 25.7295C23.4554 26.4403 23.3132 27.151 22.8867 27.4353ZM30.1365 12.0829C29.8522 12.0829 29.71 11.9408 29.71 11.6565C29.71 11.3722 29.8522 11.23 30.1365 11.23C30.4208 11.23 30.563 11.3722 30.563 11.6565C30.4208 11.9408 30.2786 12.0829 30.1365 12.0829ZM40.2293 26.7246C39.6607 27.5775 38.9499 27.7196 38.6656 27.4353C38.2392 27.151 38.097 26.5824 38.6656 25.7295C39.2342 24.8766 39.945 24.4501 40.3714 24.7344C40.7979 25.0187 40.7979 25.8717 40.2293 26.7246Z" fill="white"/>
<path d="M31.7002 10.377L32.6952 8.81333L31.2737 9.38194L30.7051 8.10257L30.1365 9.38194L28.715 8.81333L29.71 10.377H31.7002Z" fill="white"/>
<path d="M16.7742 21.0385C16.7742 20.1856 16.2056 19.4748 15.7791 19.4748C15.3527 19.4748 15.0684 20.1856 15.0684 21.1807C15.0684 22.0336 15.637 22.46 16.0634 22.46C16.4899 22.3179 16.9164 21.8914 16.7742 21.0385Z" fill="white"/>
<path d="M45.7725 32.553C45.3461 32.2687 44.6353 32.6952 44.2088 33.4059C43.6402 34.1167 43.7824 34.8274 44.2088 34.9696C44.6353 35.2539 45.2039 34.9696 45.7725 34.2588C46.199 33.5481 46.199 32.6952 45.7725 32.553Z" fill="white"/>
<path d="M36.5335 5.11736C36.5335 4.69091 36.1071 4.26445 35.112 4.26445C34.1169 4.26445 33.4062 4.69091 33.4062 5.11736C33.4062 5.54382 34.1169 5.97027 34.9698 5.97027C35.9649 5.97027 36.5335 5.54382 36.5335 5.11736Z" fill="white"/>
<path d="M17.4839 33.4059C16.9153 32.6952 16.2046 32.2687 15.7781 32.553C15.3516 32.8373 15.3517 33.5481 15.9203 34.2588C16.4889 34.9696 17.0575 35.1117 17.4839 34.9696C17.9104 34.6853 18.0525 34.1167 17.4839 33.4059Z" fill="white"/>
<path d="M28.8565 37.8126C27.8615 37.6704 27.1507 37.9547 27.0086 38.3812C26.8664 38.8076 27.5772 39.3762 28.4301 39.5184C29.283 39.6605 29.9937 39.3762 29.9937 38.9498C30.1359 38.5233 29.7095 37.9547 28.8565 37.8126Z" fill="white"/>
<path d="M30.7054 0.142152C25.0193 3.12734 18.0539 3.12734 12.3678 0.142152V33.1214C12.3678 37.1017 15.6373 40.3712 19.7597 40.3712C23.74 40.3712 27.2937 40.9398 30.7054 43.072C34.117 40.9398 37.6709 40.3712 41.6511 40.3712C45.7735 40.3712 49.1851 37.2438 49.1851 33.1214V0C43.3569 3.12734 36.5336 3.12734 30.7054 0.142152ZM45.4892 5.25962C45.4892 5.25962 45.6314 4.54886 45.7735 4.54886C45.9157 4.54886 46.1999 5.25962 46.1999 5.25962C46.4843 4.97532 47.0529 5.25962 47.0529 5.25962V5.40178C46.6264 5.25962 46.2 5.68608 46.3421 5.82823C46.3421 5.97038 45.7735 5.97038 45.7735 5.82823C45.7735 5.54393 45.347 5.25962 44.9206 5.40178V5.25962C44.6363 5.40178 45.2049 4.97532 45.4892 5.25962ZM45.9157 6.11254C47.0529 5.97038 48.048 6.68114 48.048 7.53406C48.048 8.38697 47.3372 9.09772 46.3421 9.23988C46.9107 9.52418 47.6215 9.23988 48.048 9.09772C48.048 9.09772 48.1901 10.0928 46.6264 9.80848C46.6264 10.6614 46.2 11.23 45.9157 12.0829C46.0578 11.9408 46.2 11.7986 46.3421 11.6565C46.7686 11.3722 47.3372 11.23 47.9058 11.3722C47.9058 11.7986 47.6215 12.2251 47.195 12.5094C46.7686 12.7937 46.3421 12.9358 45.9157 12.7937C45.9157 13.2201 46.0578 13.6466 46.3421 14.2152L45.6313 14.7838C45.2049 14.073 45.0627 12.3672 45.7735 11.23C46.2 10.3771 46.1999 10.0928 46.1999 9.80848C45.6313 9.95064 44.6363 10.2349 44.4942 9.38203C44.4942 9.38203 45.6313 9.52418 46.1999 9.23988C45.2049 9.23988 44.352 8.67127 44.2098 7.81836C43.9255 6.96545 44.7785 6.25469 45.9157 6.11254ZM47.195 18.6219C46.7686 18.6219 46.3421 19.0484 46.3421 19.1905C46.3421 19.3327 45.7735 19.3327 45.7735 19.1905C45.7735 18.9062 45.4892 18.4798 45.0627 18.7641V18.6219C45.0627 18.6219 45.6314 18.3376 45.9157 18.6219C45.9157 18.6219 46.2 17.9111 46.3421 17.9111C46.4843 17.9111 46.6264 18.6219 46.6264 18.6219C46.6264 18.1954 47.195 18.6219 47.195 18.6219ZM35.1121 3.12734C35.965 3.12734 36.6758 3.98025 36.6758 4.97532C36.9601 4.40671 36.8179 3.69595 36.6758 3.2695C36.6758 3.2695 37.813 3.2695 37.3866 4.69102C38.2395 4.69102 38.8081 5.25962 39.661 5.54393C39.5188 5.40177 39.3767 5.25962 39.2345 5.11747C38.9502 4.69101 38.9502 4.12241 39.0924 3.69595C39.5188 3.8381 39.9453 4.12241 40.2296 4.54886C40.5139 4.97532 40.5139 5.40177 40.5139 5.82823C40.9403 5.82823 41.3668 5.82823 41.9354 5.54393L42.504 6.25469C41.6511 6.53899 39.9453 6.53899 38.8081 5.82823C38.0973 5.40177 37.6709 5.25962 37.3866 5.25962C37.5287 5.68608 37.6708 6.8233 36.8179 6.8233C36.8179 6.8233 37.1022 5.68608 36.6758 5.11747C36.6758 6.11253 35.965 6.96545 34.97 6.96545C34.117 6.96545 33.4063 6.11253 33.4063 4.97532C33.4063 3.98025 34.117 3.12734 35.1121 3.12734ZM32.4112 4.69102C32.1269 4.40671 32.5534 3.8381 32.5534 3.8381H32.6955C32.4112 4.26456 32.9798 4.54886 33.122 4.54886C33.2641 4.54886 33.2641 5.11747 33.122 5.11747C32.8377 5.11747 32.4112 5.54393 32.5534 5.97038H32.4112C32.4112 5.97038 32.1269 5.54393 32.4112 5.11747C32.4112 5.11747 31.7005 4.97532 31.7005 4.83317C31.5583 4.83317 32.4112 4.69102 32.4112 4.69102ZM28.5731 4.69102C28.8574 4.69102 29.2839 4.26456 28.9996 3.98026H29.1417C29.1417 3.98026 29.5682 4.40671 29.2839 4.83317C29.2839 4.83317 30.1368 4.97532 30.1368 5.11747C30.1368 5.25962 29.426 5.40178 29.426 5.40178C29.7103 5.68608 29.426 6.25469 29.426 6.25469H29.2839C29.426 5.82823 28.9996 5.40178 28.7153 5.40178C28.431 5.25962 28.431 4.69102 28.5731 4.69102ZM19.7597 5.40178C20.3283 5.54393 20.7548 5.68608 21.1812 5.68608C21.0391 5.25962 21.1812 4.83317 21.4655 4.40671C21.7498 3.98026 22.1763 3.69595 22.6027 3.5538C22.7449 3.98025 22.7449 4.54886 22.4606 4.97532C22.3184 5.11747 22.1763 5.25962 22.0341 5.40178C22.887 5.11747 23.4556 4.54886 24.3086 4.54886C23.8821 2.98519 25.0193 3.12734 25.0193 3.12734C25.0193 3.41165 24.735 4.12241 25.0193 4.83317C25.0193 3.8381 25.7301 2.98519 26.583 2.98519C27.5781 2.98519 28.2888 3.8381 28.2888 4.97532C28.2888 6.11253 27.5781 6.96545 26.7252 6.96545C25.8722 6.96545 25.0193 6.11253 25.0193 5.11747C24.5929 5.68608 24.8772 6.8233 24.8772 6.8233C24.0243 6.8233 24.1664 5.68608 24.3086 5.25962C24.0243 5.25962 23.7399 5.40177 22.887 5.82823C21.7498 6.53899 20.044 6.53899 19.1911 6.25469L19.7597 5.40178ZM15.6373 5.11747C15.6373 5.11747 15.9216 4.40671 16.0638 4.40671C16.2059 4.40671 16.3481 5.11747 16.3481 5.11747C16.7745 4.83317 17.201 5.25962 17.201 5.25962V5.40178C16.7745 5.25962 16.3481 5.68608 16.3481 5.82823C16.3481 5.97038 15.7794 5.97038 15.7794 5.82823C15.7794 5.54393 15.4951 5.11747 15.0687 5.40178V5.25962C14.7844 5.25962 15.353 4.97532 15.6373 5.11747ZM15.7794 6.11254C16.9167 6.11254 17.7696 6.96545 17.6274 7.81836C17.4853 8.67127 16.6324 9.23988 15.6373 9.23988C16.2059 9.66633 17.3431 9.38203 17.3431 9.38203C17.201 10.2349 16.2059 9.95064 15.6373 9.80848C15.6373 10.0928 15.6373 10.3771 16.0638 11.23C16.6324 12.3672 16.4902 14.073 16.2059 14.7838L15.4951 14.2152C15.7794 13.6466 15.9216 13.2201 15.9216 12.7937C15.4951 12.7937 15.0687 12.6515 14.6422 12.5094C14.2158 12.2251 13.9315 11.7986 13.9315 11.3722C14.5001 11.23 15.0687 11.3722 15.4951 11.6565C15.6373 11.7986 15.7794 11.9408 15.9216 12.0829C15.6373 11.23 15.2108 10.6614 15.2108 9.80848C13.6472 10.0928 13.7893 9.09772 13.7893 9.09772C14.2158 9.23988 14.7844 9.38203 15.4951 9.23988C14.5001 9.09772 13.7893 8.38697 13.7893 7.53406C13.6472 6.68114 14.6422 6.11254 15.7794 6.11254ZM16.9167 18.4798C16.4902 18.4798 16.0638 18.9062 16.0638 19.0484C16.0638 19.1905 15.4951 19.1905 15.4951 19.0484C15.4951 18.7641 15.0687 18.4798 14.6422 18.6219V18.4798C14.6422 18.4798 15.0687 18.0533 15.4951 18.3376C15.4951 18.3376 15.6373 17.6268 15.7794 17.6268C15.9216 17.6268 16.2059 18.3376 16.2059 18.3376C16.348 18.1954 16.9167 18.4798 16.9167 18.4798ZM13.3629 23.7394C13.9315 23.7394 14.3579 23.8815 14.7844 24.308C15.0687 24.4501 15.2108 24.8766 15.2108 25.1609C15.2108 25.0187 15.353 24.8766 15.353 24.7344C15.7795 23.8815 15.7794 23.5972 15.7794 23.3129C15.2108 23.4551 14.2158 23.7394 14.0736 22.8865C14.0736 22.8865 15.353 23.0286 15.7794 22.6022C14.7844 22.6022 13.7893 22.0336 13.7893 21.1806C13.7893 20.3277 14.6422 19.617 15.6373 19.4748C16.7745 19.4748 17.7696 20.0434 17.7696 20.8963C17.7696 21.7493 17.0588 22.46 15.9216 22.6022C16.6324 22.8865 17.3431 22.6022 17.6274 22.46C17.6274 22.46 17.7696 23.4551 16.2059 23.1708C16.348 24.5923 14.7844 25.303 15.9216 27.5775L15.2108 28.1461C14.9265 27.5775 14.7844 26.4403 15.0687 25.4452C14.6422 25.4452 14.0736 25.303 13.7893 24.8766C13.505 24.5923 13.3629 24.1658 13.3629 23.7394ZM14.5001 32.4106C14.3579 32.2685 14.6422 31.6999 15.0687 31.842C15.0687 31.842 14.7844 31.1313 14.9265 31.1313C15.0687 30.9891 15.6373 31.5577 15.6373 31.5577C15.7794 31.1313 16.3481 31.1313 16.3481 31.1313V31.2734C15.9216 31.4156 15.7794 31.842 15.9216 32.1263C16.0637 32.2685 15.4951 32.5528 15.4951 32.4106C15.353 32.1263 14.7844 31.9842 14.5001 32.4106ZM20.7548 39.0918C20.6126 38.5232 20.4705 38.0967 20.1862 37.8124C19.9019 38.0967 19.3333 38.2389 18.9068 38.2389C18.3382 38.2389 17.7696 38.0967 17.4853 37.6703C17.7696 37.2438 18.3382 37.1017 18.9068 37.1017C19.1911 37.1017 19.3332 37.1017 19.4754 37.1017C18.7646 36.5331 18.0539 36.3909 17.4853 35.6801C16.3481 36.8174 15.9216 35.9644 15.9216 35.9644C16.2059 35.8223 17.0588 35.6801 17.3431 34.9694C16.4902 35.538 15.353 35.3958 14.7844 34.6851C14.3579 33.9743 14.6422 32.8371 15.6373 32.2685C16.6324 31.6999 17.7696 31.842 18.196 32.5528C18.6225 33.2636 18.3382 34.2586 17.4853 34.8272C18.196 34.8272 19.0489 33.9743 19.0489 33.9743C19.4754 34.6851 18.4803 35.1115 17.9117 35.2537C18.0539 35.538 18.3382 35.6801 19.0489 36.1066C20.3283 36.6752 21.1812 38.0967 21.3234 38.9496L20.7548 39.0918ZM26.583 38.5232C26.2987 38.5232 25.7301 38.8075 25.8722 39.2339H25.7301C25.7301 39.2339 25.4458 38.6653 25.8722 38.381C25.8722 38.381 25.1615 38.0967 25.1615 37.9546C25.1615 37.8124 26.0144 37.8124 26.0144 37.8124C25.7301 37.386 26.2987 36.9595 26.2987 36.9595L26.4408 37.1017C26.1565 37.5281 26.583 37.9546 26.7252 37.9546C26.8673 37.9546 26.7251 38.5232 26.583 38.5232ZM35.2543 39.6604C34.6857 39.3761 34.2592 39.2339 33.8328 39.0918C33.8328 39.5182 33.6906 39.9447 33.2641 40.229C32.8377 40.6555 32.4112 40.7976 31.9848 40.7976C31.9848 40.3712 32.1269 39.8025 32.5534 39.3761C32.6955 39.2339 32.8377 39.0918 32.9798 39.0918C32.1269 39.2339 31.4162 39.5182 30.5633 39.3761C30.7054 40.9398 29.5682 40.6555 29.5682 40.6555C29.7103 40.3712 30.1368 39.6604 29.8525 39.0918C29.5682 40.0869 28.7153 40.7976 27.8624 40.5133C27.0094 40.229 26.4408 39.2339 26.583 38.2389C26.8673 37.1017 27.7202 36.3909 28.5731 36.6752C29.426 36.8174 29.8525 37.8124 29.7103 38.8075C30.1368 38.381 30.1368 37.2438 30.1368 37.2438C30.9897 37.5281 30.5632 38.381 30.4211 38.8075C30.7054 38.9496 31.1319 38.8075 31.8426 38.6653C33.122 38.2389 34.8278 38.5232 35.5386 39.0918L35.2543 39.6604ZM30.7054 36.1066C28.2888 34.6851 26.1565 34.4008 23.4557 34.4008C20.6126 34.4008 18.6225 32.2685 18.6225 29.5676V7.3919C21.6077 8.95557 28.0045 7.96051 30.8476 6.39684C33.6906 7.81836 40.0874 8.95557 43.0726 7.3919V29.5676C43.0726 32.1263 40.656 34.4008 37.9552 34.4008C35.2543 34.4008 32.9798 34.6851 30.7054 36.1066ZM46.6264 34.8272C46.2 35.538 45.0627 35.6801 44.2098 35.1115C44.6363 35.6801 45.347 35.9644 45.6313 35.9644C45.6313 35.9644 45.0627 36.8174 44.0677 35.6801C43.6412 36.3909 42.7883 36.5331 42.0775 37.1017C42.2197 37.1017 42.504 37.1017 42.6462 37.1017C43.2148 37.1017 43.6412 37.386 44.0677 37.6703C43.7834 37.9546 43.2148 38.2389 42.6462 38.2389C42.2197 38.2389 41.7932 38.0967 41.3668 37.8124C41.0825 38.0967 40.9403 38.5232 40.7982 39.0918H39.8031C39.9453 38.2389 40.9403 36.8174 42.0775 36.2487C42.9305 35.8223 43.0726 35.6801 43.3569 35.3958C42.7883 35.2537 41.9354 34.8272 42.2197 34.1165C42.2197 34.1165 43.0726 34.9694 43.6412 34.9694C42.7883 34.4008 42.504 33.4057 42.9305 32.695C43.3569 31.9842 44.4941 31.842 45.4892 32.4106C46.7686 32.9793 47.195 34.1165 46.6264 34.8272ZM47.195 32.4106C46.9107 31.9842 46.3421 32.1263 46.1999 32.4106C46.1999 32.5528 45.6313 32.1263 45.6313 32.1263C45.7735 31.842 45.7735 31.4156 45.2049 31.2734V31.1313C45.2049 31.1313 45.7735 31.1313 45.9157 31.5577C45.9157 31.5577 46.4843 30.9891 46.6264 31.1313C46.7686 31.2734 46.4843 31.842 46.4843 31.842C47.0529 31.6999 47.3372 32.2685 47.195 32.4106ZM47.9058 24.8766C47.6215 25.1609 47.0529 25.4452 46.6264 25.4452C46.9107 26.4403 46.7686 27.5775 46.4843 28.1461L45.7735 27.5775C46.9107 25.303 45.347 24.5923 45.4892 23.1708C43.9255 23.4551 44.0677 22.46 44.0677 22.46C44.352 22.6022 45.0627 22.8865 45.7735 22.6022C44.7784 22.46 43.9256 21.7493 43.9256 20.8963C44.0677 20.0434 45.0628 19.4748 46.0578 19.4748C47.195 19.617 48.0479 20.3277 47.9058 21.1806C47.7636 22.0336 46.9107 22.6022 45.9157 22.6022C46.4843 23.0286 47.6215 22.8865 47.6215 22.8865C47.4793 23.7394 46.4843 23.4551 45.9157 23.3129C45.9157 23.5972 45.9157 23.8815 46.3421 24.7344C46.3421 24.8766 46.4843 25.0187 46.4843 25.1609C46.4843 24.8766 46.7686 24.5923 46.9107 24.308C47.3372 23.8815 47.7636 23.7394 48.3322 23.7394C48.3322 24.1658 48.1901 24.5923 47.9058 24.8766Z" fill="white"/>
<path d="M15.6363 9.09783C16.0628 9.09783 16.4892 8.67137 16.6314 7.81846C16.6314 6.96555 16.3471 6.25479 15.9206 6.11264C15.4942 6.11264 14.9256 6.68125 14.9256 7.67631C14.7834 8.67137 15.0677 9.09783 15.6363 9.09783Z" fill="white"/>
<path d="M46.0564 9.09783C46.4829 9.09783 46.9093 8.52922 46.9093 7.67631C46.9093 6.8234 46.3407 6.11264 45.9142 6.11264C45.4878 6.11264 45.0613 6.8234 45.2035 7.81846C45.2035 8.81353 45.6299 9.23998 46.0564 9.09783Z" fill="white"/>
<path d="M26.5825 5.82823C27.4354 5.82823 28.1461 5.40177 28.2883 4.97532C28.2883 4.54886 27.5775 4.12241 26.5825 4.12241C25.7296 4.12241 25.1609 4.54886 25.1609 4.97532C25.1609 5.54393 25.5874 5.97038 26.5825 5.82823Z" fill="white"/>
<path d="M46.6257 21.1807C46.6257 20.3277 46.3414 19.617 45.9149 19.4748C45.4885 19.4748 44.9199 20.0434 44.9199 21.0385C44.9199 21.8914 45.3463 22.46 45.7728 22.46C46.1992 22.46 46.6257 22.0336 46.6257 21.1807Z" fill="white"/>
</svg>
