<svg width="560" height="162" viewBox="0 0 560 162" fill="none" xmlns="http://www.w3.org/2000/svg">
<mask id="mask0" mask-type="alpha" maskUnits="userSpaceOnUse" x="0" y="0" width="560" height="162">
<path d="M0 10C0 4.47716 4.47715 0 10 0H560V162H10C4.47715 162 0 157.523 0 152V10Z" fill="#009DE0"/>
</mask>
<g mask="url(#mask0)">
<path d="M200.636 85.4387C204.482 91.6673 205.937 95.093 206.145 101.841C206.457 108.588 208.64 120.215 208.536 134.022C208.432 147.829 207.392 148.971 210.199 175.338C210.199 175.338 226.101 175.338 231.091 175.338C229.739 149.801 223.919 119.177 221.944 108.588C219.969 97.9997 221.84 95.1968 222.879 92.1864C224.023 89.1759 224.127 86.892 224.542 83.6739C224.958 80.352 224.334 79.7291 224.958 76.1996C225.582 72.5662 225.27 64.3652 224.958 59.7976C224.646 55.2299 221.112 56.7871 221.008 59.7976C220.904 62.8081 220.385 66.9605 220.281 69.5557C220.177 71.7358 219.138 71.2167 219.034 69.971C218.93 68.7253 219.034 55.2299 219.034 51.8042C219.034 48.3785 215.396 49.3128 215.396 51.8042C215.292 54.2956 214.98 65.2995 214.876 66.3376C214.876 67.2719 214.044 67.3757 213.941 66.4414C213.837 65.5071 213.837 52.3232 213.629 48.2746C213.421 44.2261 209.575 45.4718 209.471 47.1327C209.471 48.8975 208.744 61.0433 209.055 64.3652C209.367 67.6872 207.912 67.5833 207.6 66.0262C207.185 64.5728 206.561 51.8042 206.457 48.067C206.353 44.3299 202.195 45.368 202.195 47.7556C202.195 50.1432 201.78 60.6281 201.78 60.9395C200.74 58.9671 198.142 59.6938 198.246 60.7319C198.35 61.9776 198.454 64.3652 197.934 65.7148C197.414 67.0643 197.414 67.791 197.414 71.7357C197.31 75.4729 196.791 79.2101 200.636 85.4387Z" fill="#008BC6"/>
<path d="M201.676 60.8359C201.884 61.1473 201.988 61.6664 202.092 62.1854C202.508 65.715 202.196 66.0264 203.131 74.3312" fill="#008BC6"/>
<path d="M63.229 68.206C63.0211 68.5174 62.9171 69.0365 62.8132 69.5555C62.3974 73.0851 62.7093 73.3965 61.7738 81.7013" fill="#008BC6"/>
<path d="M187.748 81.0789C187.644 81.3903 187.54 81.8056 187.644 82.3246C187.852 85.6465 188.164 85.7503 188.58 93.5361" fill="#008BC6"/>
<path d="M311.955 99.0378C311.851 99.3493 311.747 99.7645 311.851 100.284C312.059 103.606 312.371 103.709 312.787 111.495" fill="#008BC6"/>
<path d="M122.89 95.7159C125.488 101.737 126.216 105.059 125.488 111.08C124.761 117.101 125.177 127.689 123.098 139.939C121.019 152.189 120.084 153.019 118.836 176.792C118.836 176.792 132.972 178.972 137.337 179.698C139.728 156.86 138.793 128.831 138.585 119.177C138.377 109.523 140.352 107.239 141.703 104.747C143.054 102.256 143.574 100.284 144.405 97.3768C145.237 94.4701 144.821 93.8473 145.86 90.733C146.9 87.6187 147.835 80.2481 148.147 76.1996C148.459 72.151 145.133 72.9814 144.613 75.6805C144.094 78.2758 143.054 81.9091 142.534 84.2967C142.119 86.2691 141.287 85.6463 141.391 84.5044C141.495 83.4663 143.47 71.4243 143.886 68.4138C144.301 65.4033 141.079 65.7147 140.664 67.8947C140.248 70.1786 138.377 79.8329 138.169 80.6634C137.961 81.4939 137.234 81.3901 137.337 80.6634C137.441 79.8329 139.208 68.1024 139.624 64.469C140.04 60.8356 136.402 61.3547 136.09 62.9118C135.778 64.469 133.492 75.1615 133.284 78.0681C133.076 81.0786 131.829 80.7672 131.725 79.4177C131.621 78.0681 132.868 66.649 133.18 63.3271C133.492 60.0052 129.75 60.3166 129.438 62.4966C129.126 64.5728 127.255 73.8119 127.255 74.1233C126.632 72.2548 124.137 72.5662 124.137 73.5005C124.137 74.6424 123.825 76.8224 123.202 77.8605C122.578 79.0024 122.474 79.6253 121.954 83.051C121.435 86.4768 120.291 89.6949 122.89 95.7159Z" fill="#008BC6"/>
<path d="M127.255 74.02C127.359 74.3315 127.463 74.7467 127.463 75.2658C127.359 78.4839 126.944 78.6915 126.632 86.1658" fill="#008BC6"/>
<path d="M-17.5317 95.7155C-14.9332 101.736 -14.2056 105.058 -14.9332 111.079C-15.6608 117.1 -15.245 127.689 -17.3238 139.939C-19.4026 152.188 -20.3381 153.019 -21.5853 176.791C-21.5853 176.791 -7.44961 178.971 -3.08417 179.698C-0.693571 156.86 -1.62902 128.831 -1.8369 119.177C-2.04478 109.522 -0.0699348 107.238 1.28127 104.747C2.73642 102.256 3.15218 100.283 3.98369 97.3764C4.8152 94.4698 4.39945 93.8469 5.43884 90.7326C6.47823 87.6183 7.41368 80.2478 7.7255 76.1992C8.03732 72.1506 4.71126 72.981 4.19157 75.6801C3.67187 78.2754 2.63248 81.9087 2.11279 84.2964C1.69703 86.2688 0.865517 85.6459 0.969456 84.504C1.0734 83.4659 3.04824 71.4239 3.464 68.4134C3.87975 65.4029 0.657639 65.7143 0.241882 67.8944C-0.173874 70.1782 -2.04478 79.8325 -2.25265 80.663C-2.46053 81.4935 -3.18811 81.3897 -3.08417 80.663C-2.98023 79.9363 -1.21326 68.102 -0.797508 64.4686C-0.381752 60.8353 -4.01962 61.3543 -4.33144 62.9115C-4.64325 64.4686 -6.82597 75.1611 -7.13779 78.1716C-7.34567 81.1821 -8.59294 80.8706 -8.69688 79.5211C-8.80082 78.1716 -7.55355 66.7524 -7.24173 63.4305C-6.82598 60.1086 -10.6717 60.42 -10.9835 62.6C-11.2954 64.6762 -13.1663 73.9153 -13.1663 74.2268C-13.7899 72.3582 -16.2844 72.6696 -16.2844 73.6039C-16.2844 74.7458 -16.5963 76.9258 -17.2199 77.9639C-17.8435 79.1059 -17.9475 79.7287 -18.4672 83.1544C-18.9868 86.5802 -20.0262 89.6945 -17.5317 95.7155Z" fill="#008BC6"/>
<path d="M75.0779 99.6605C77.6764 105.681 78.404 109.003 77.6764 115.024C76.9488 121.045 77.3646 131.634 75.2858 143.884C73.207 156.133 72.2716 156.964 71.0243 180.736C71.0243 180.736 85.16 182.916 89.5254 183.643C91.916 160.805 90.9806 132.776 90.7727 123.122C90.5648 113.467 92.5397 111.183 93.8909 108.692C95.346 106.201 95.7618 104.228 96.5933 101.321C97.4248 98.4148 97.0091 97.7919 98.0484 94.6776C99.0878 91.5633 100.023 84.1928 100.335 80.1442C100.647 76.0956 97.3209 76.926 96.8012 79.6251C96.2815 82.2204 95.2421 85.8537 94.7224 88.2413C94.3066 90.2137 93.4751 89.5909 93.5791 88.449C93.683 87.4109 95.6579 75.3689 96.0736 72.3584C96.4894 69.3479 93.2672 69.6593 92.8515 71.8393C92.4357 74.1232 90.5648 83.7775 90.357 84.608C90.1491 85.4385 89.4215 85.3347 89.5254 84.608C89.6294 83.7775 91.3963 72.047 91.8121 68.4136C92.2279 64.7802 88.59 65.2993 88.2782 66.8565C87.9664 68.4136 85.6797 79.1061 85.4718 82.0127C85.2639 84.9194 84.0167 84.7118 83.9127 83.3623C83.8088 82.0127 85.0561 70.5936 85.3679 67.2717C85.7836 63.9498 81.9379 64.2612 81.6261 66.4412C81.3143 68.5174 79.4434 77.7565 79.4434 78.068C78.8197 76.1994 76.3252 76.5108 76.3252 77.4451C76.3252 78.587 76.0134 80.767 75.3897 81.8051C74.7661 82.947 74.6622 83.5699 74.1425 86.9956C73.5188 90.3176 72.4794 93.5357 75.0779 99.6605Z" fill="#008BC6"/>
<path d="M79.4433 77.9646C79.5473 78.276 79.6512 78.6912 79.6512 79.2103C79.5473 82.4284 79.1315 82.636 78.8197 90.1104" fill="#008BC6"/>
<path d="M317.152 99.6605C319.751 105.681 320.478 109.003 319.751 115.024C319.023 121.045 319.439 131.634 317.36 143.884C315.281 156.133 314.346 156.964 313.099 180.736C313.099 180.736 327.234 182.916 331.6 183.643C333.99 160.805 333.055 132.776 332.847 123.122C332.639 113.467 334.614 111.183 335.965 108.692C337.42 106.201 337.836 104.228 338.668 101.321C339.499 98.4148 339.083 97.7919 340.123 94.6776C341.162 91.5633 342.098 84.1928 342.409 80.1442C342.721 76.0956 339.395 76.926 338.876 79.6251C338.356 82.2204 337.316 85.8537 336.797 88.2413C336.381 90.2137 335.549 89.5909 335.653 88.449C335.757 87.4109 337.732 75.3689 338.148 72.3584C338.564 69.3479 335.342 69.6593 334.926 71.8393C334.51 74.1232 332.639 83.7775 332.431 84.608C332.223 85.4385 331.496 85.3347 331.6 84.608C331.704 83.7775 333.471 72.047 333.886 68.4136C334.302 64.7802 330.664 65.2993 330.353 66.8565C330.041 68.4136 327.754 79.1061 327.546 82.0127C327.338 84.9194 326.091 84.7118 325.987 83.3623C325.883 82.0127 327.13 70.5936 327.442 67.2717C327.858 63.9498 324.012 64.2612 323.7 66.4412C323.389 68.5174 321.518 77.7565 321.518 78.068C320.894 76.1994 318.4 76.5108 318.4 77.4451C318.4 78.587 318.088 80.767 317.464 81.8051C316.84 82.947 316.737 83.5699 316.217 86.9956C315.593 90.3176 314.554 93.5357 317.152 99.6605Z" fill="#008BC6"/>
<path d="M321.518 77.9646C321.622 78.276 321.726 78.6912 321.726 79.2103C321.622 82.4284 321.206 82.636 320.894 90.1104" fill="#008BC6"/>
<path d="M231.091 85.5425C231.195 85.8539 231.299 86.2692 231.299 86.7882C231.195 90.0063 230.779 90.214 230.467 97.6883" fill="#008BC6"/>
<path d="M270.483 99.6605C273.082 105.681 273.809 109.003 273.082 115.024C272.354 121.045 272.77 131.634 270.691 143.884C268.613 156.133 267.677 156.964 266.43 180.736C266.43 180.736 280.566 182.916 284.931 183.643C287.322 160.805 286.386 132.776 286.178 123.122C285.97 113.467 287.945 111.183 289.296 108.692C290.752 106.201 291.167 104.228 291.999 101.321C292.83 98.4148 292.415 97.7919 293.454 94.6776C294.493 91.5633 295.429 84.1928 295.741 80.1442C296.052 76.0956 292.726 76.926 292.207 79.6251C291.687 82.2204 290.648 85.8537 290.128 88.2413C289.712 90.2137 288.881 89.5909 288.985 88.449C289.089 87.4109 291.063 75.3689 291.479 72.3584C291.895 69.3479 288.673 69.6593 288.257 71.8393C287.841 74.1232 285.97 83.7775 285.762 84.608C285.555 85.4385 284.827 85.3347 284.931 84.608C285.035 83.7775 286.802 72.047 287.218 68.4136C287.633 64.7802 283.996 65.2993 283.684 66.8565C283.372 68.4136 281.085 79.1061 280.877 82.0127C280.669 84.9194 279.422 84.7118 279.318 83.3623C279.214 82.0127 280.462 70.5936 280.773 67.2717C281.189 63.9498 277.343 64.2612 277.032 66.4412C276.72 68.5174 274.849 77.7565 274.849 78.068C274.225 76.1994 271.731 76.5108 271.731 77.4451C271.731 78.587 271.419 80.767 270.795 81.8051C270.172 82.947 270.068 83.5699 269.548 86.9956C268.924 90.3176 267.989 93.5357 270.483 99.6605Z" fill="#008BC6"/>
<path d="M274.849 77.9646C274.953 78.276 275.057 78.6912 275.057 79.2103C274.953 82.4284 274.537 82.636 274.225 90.1104" fill="#008BC6"/>
<path d="M53.4587 96.0276C49.6129 102.256 48.1578 105.682 47.9499 112.43C47.6381 119.177 45.4554 130.804 45.5593 144.611C45.6632 158.418 46.7026 159.559 43.8963 185.927C43.8963 185.927 27.9936 185.927 23.0045 185.927C24.3557 160.39 30.1763 129.766 32.1512 119.177C34.126 108.589 32.2551 105.786 31.2157 102.775C30.0724 99.7647 29.9684 97.4809 29.5527 94.2628C29.1369 90.9409 29.7606 90.318 29.1369 86.7885C28.5133 83.1551 28.8251 74.9541 29.1369 70.3865C29.4487 65.8188 32.9827 67.376 33.0866 70.3865C33.1906 73.397 33.7102 77.5494 33.8142 80.1446C33.9181 82.3246 34.9575 81.8056 35.0615 80.5599C35.1654 79.3141 35.0615 65.8188 35.0615 62.3931C35.0615 58.9673 38.6993 59.9016 38.6993 62.3931C38.8033 64.8845 39.1151 75.8884 39.219 76.9265C39.219 77.8608 40.0505 77.9646 40.1545 77.0303C40.1545 76.1998 40.2584 62.9121 40.4663 58.8635C40.6742 54.8149 44.5199 56.0607 44.6238 57.7216C44.6238 59.4864 45.3514 71.6322 45.0396 74.9541C44.7278 78.276 46.1829 78.1722 46.4948 76.6151C46.9105 75.1617 47.5341 62.3931 47.6381 58.6559C47.742 54.9188 51.8996 55.9569 51.8996 58.3445C51.8996 60.7321 52.3153 71.2169 52.3153 71.5284C53.3547 69.556 55.9532 70.2827 55.8493 71.3208C55.7453 72.5665 55.6414 74.9541 56.1611 76.3036C56.6808 77.6532 56.6808 78.3799 56.6808 82.3246C56.7847 86.0618 57.3044 89.799 53.4587 96.0276Z" fill="#008BC6" fill-opacity="0.5"/>
<path d="M192.425 103.191C189.827 109.419 189.099 112.741 189.931 118.866C190.658 124.991 190.451 135.891 192.633 148.348C194.816 160.806 195.855 161.636 197.414 185.928C197.414 185.928 183.071 188.315 178.498 189.042C175.899 165.685 176.523 137.137 176.627 127.171C176.731 117.205 174.756 115.025 173.301 112.43C171.845 109.835 171.43 107.862 170.494 104.956C169.663 102.049 170.079 101.426 168.935 98.208C167.896 95.0937 166.856 87.5155 166.441 83.3631C166.025 79.2107 169.455 80.0412 169.975 82.7403C170.494 85.4393 171.638 89.0727 172.157 91.4603C172.573 93.4327 173.405 92.8099 173.405 91.6679C173.301 90.526 171.118 78.3802 170.702 75.2659C170.182 72.1516 173.612 72.4631 174.028 74.7469C174.548 77.0307 176.523 86.8927 176.731 87.827C176.938 88.6574 177.666 88.6574 177.562 87.827C177.458 86.9965 175.483 74.9545 175.068 71.3211C174.652 67.584 178.394 68.103 178.601 69.6602C178.809 71.2173 181.408 82.1174 181.616 85.1279C181.824 88.1384 183.071 87.827 183.175 86.4774C183.279 85.1279 181.928 73.3973 181.512 69.9716C181.096 66.5459 184.942 66.9611 185.358 69.0373C185.669 71.2173 187.644 80.5603 187.748 80.8717C188.372 78.8993 190.866 79.2107 190.97 80.145C191.074 81.2869 191.282 83.4669 192.01 84.6089C192.737 85.7508 192.737 86.4774 193.361 89.9032C193.984 93.3289 195.024 96.9623 192.425 103.191Z" fill="#008BC6" fill-opacity="0.5"/>
<path d="M316.633 121.15C314.034 127.378 313.306 130.7 314.138 136.825C314.969 142.95 314.658 153.85 316.84 166.307C319.023 178.764 320.063 179.595 321.622 203.887C321.622 203.887 307.278 206.274 302.705 207.001C300.106 183.644 300.73 155.096 300.834 145.13C300.938 135.164 298.963 132.984 297.508 130.389C296.053 127.794 295.637 125.821 294.701 122.915C293.87 120.008 294.286 119.385 293.142 116.167C292.103 113.053 291.064 105.474 290.648 101.322C290.232 97.1697 293.662 98.0002 294.182 100.699C294.701 103.398 295.845 107.032 296.364 109.419C296.78 111.392 297.612 110.769 297.612 109.627C297.508 108.485 295.325 96.3392 294.909 93.2249C294.39 90.1106 297.82 90.422 298.235 92.7058C298.755 94.9897 300.73 104.852 300.938 105.786C301.146 106.616 301.873 106.616 301.769 105.786C301.665 104.955 299.69 92.9135 299.275 89.2801C298.859 85.5429 302.601 86.062 302.809 87.6191C303.12 89.1763 305.615 100.076 305.823 103.087C306.031 106.097 307.278 105.786 307.382 104.436C307.486 103.087 306.135 91.3563 305.719 87.9306C305.303 84.5048 309.149 84.9201 309.565 86.9963C309.876 89.1763 311.851 98.5192 311.955 98.8306C312.579 96.8583 315.073 97.1697 315.177 98.104C315.281 99.2459 315.489 101.426 316.217 102.568C316.944 103.71 316.944 104.436 317.568 107.862C318.192 111.288 319.127 114.921 316.633 121.15Z" fill="#008BC6" fill-opacity="0.5"/>
<path d="M226.725 107.239C229.324 113.26 230.051 116.582 229.324 122.603C228.596 128.624 229.012 139.213 226.933 151.463C224.854 163.712 223.919 164.543 222.672 188.315C222.672 188.315 236.807 190.495 241.173 191.222C243.563 168.384 242.628 140.355 242.42 130.701C242.212 121.046 244.187 118.762 245.538 116.271C246.993 113.779 247.409 111.807 248.241 108.9C249.072 105.994 248.656 105.371 249.696 102.257C250.735 99.1422 251.671 91.7717 251.982 87.7231C252.294 83.6745 248.968 84.505 248.448 87.2041C247.929 89.7993 246.889 93.4327 246.37 95.8203C245.954 97.7927 245.122 97.1699 245.226 96.0279C245.33 94.9898 247.305 82.9479 247.721 79.9374C248.137 76.9269 244.915 77.2383 244.499 79.4183C244.083 81.7021 242.212 91.3565 242.004 92.187C241.796 93.0174 241.069 92.9136 241.173 92.187C241.277 91.4603 243.044 79.6259 243.459 75.9926C243.875 72.3592 240.237 72.8783 239.925 74.4354C239.614 75.9926 237.327 86.685 237.119 89.5917C236.911 92.6022 235.664 92.2908 235.56 90.9412C235.456 89.5917 236.703 78.1726 237.015 74.8507C237.431 71.5287 233.585 71.8402 233.273 74.0202C232.962 76.0964 231.091 85.3355 231.091 85.6469C230.467 83.7783 227.972 84.0898 227.972 85.0241C227.972 86.166 227.661 88.346 227.037 89.3841C226.413 90.526 226.309 91.1489 225.79 94.5746C225.166 98.0003 224.127 101.218 226.725 107.239Z" fill="#008BC6" fill-opacity="0.5"/>
<path d="M453.229 65.206C453.021 65.5174 452.917 66.0365 452.813 66.5555C452.397 70.0851 452.709 70.3965 451.774 78.7013" fill="#008BC6"/>
<path d="M512.89 92.7159C515.488 98.7369 516.216 102.059 515.488 108.08C514.761 114.101 515.177 124.689 513.098 136.939C511.019 149.189 510.084 150.019 508.836 173.792C508.836 173.792 522.972 175.972 527.338 176.698C529.728 153.86 528.793 125.831 528.585 116.177C528.377 106.523 530.352 104.239 531.703 101.747C533.054 99.2559 533.574 97.2835 534.405 94.3769C535.237 91.4702 534.821 90.8473 535.861 87.733C536.9 84.6187 537.835 77.2482 538.147 73.1996C538.459 69.151 535.133 69.9815 534.613 72.6805C534.094 75.2758 533.054 78.9091 532.534 81.2968C532.119 83.2692 531.287 82.6463 531.391 81.5044C531.495 80.4663 533.47 68.4243 533.886 65.4138C534.301 62.4033 531.079 62.7147 530.664 64.8948C530.248 67.1786 528.377 76.8329 528.169 77.6634C527.961 78.4939 527.234 78.3901 527.338 77.6634C527.441 76.8329 529.208 65.1024 529.624 61.469C530.04 57.8357 526.402 58.3547 526.09 59.9119C525.778 61.469 523.492 72.1615 523.284 75.0682C523.076 78.0787 521.829 77.7672 521.725 76.4177C521.621 75.0682 522.868 63.649 523.18 60.3271C523.492 57.0052 519.75 57.3166 519.438 59.4966C519.126 61.5728 517.255 70.8119 517.255 71.1234C516.632 69.2548 514.137 69.5662 514.137 70.5005C514.137 71.6424 513.825 73.8224 513.202 74.8605C512.578 76.0025 512.474 76.6253 511.955 80.051C511.435 83.4768 510.292 86.6949 512.89 92.7159Z" fill="#008BC6"/>
<path d="M517.255 71.0201C517.359 71.3315 517.463 71.7467 517.463 72.2658C517.359 75.4839 516.944 75.6915 516.632 83.1658" fill="#008BC6"/>
<path d="M372.468 92.7155C375.067 98.7365 375.794 102.058 375.067 108.079C374.339 114.1 374.755 124.689 372.676 136.939C370.598 149.188 369.662 150.019 368.415 173.791C368.415 173.791 382.551 175.971 386.916 176.698C389.307 153.86 388.371 125.831 388.163 116.177C387.955 106.522 389.93 104.238 391.281 101.747C392.737 99.2555 393.152 97.2831 393.984 94.3765C394.815 91.4698 394.4 90.8469 395.439 87.7326C396.478 84.6183 397.414 77.2478 397.726 73.1992C398.037 69.1506 394.711 69.9811 394.192 72.6801C393.672 75.2754 392.633 78.9088 392.113 81.2964C391.697 83.2688 390.866 82.6459 390.97 81.504C391.074 80.4659 393.048 68.4239 393.464 65.4134C393.88 62.4029 390.658 62.7144 390.242 64.8944C389.826 67.1782 387.955 76.8325 387.747 77.663C387.54 78.4935 386.812 78.3897 386.916 77.663C387.02 76.9364 388.787 65.102 389.203 61.4686C389.618 57.8353 385.981 58.3543 385.669 59.9115C385.357 61.4686 383.174 72.1611 382.862 75.1716C382.654 78.1821 381.407 77.8706 381.303 76.5211C381.199 75.1716 382.447 63.7525 382.758 60.4305C383.174 57.1086 379.328 57.42 379.017 59.6001C378.705 61.6763 376.834 70.9154 376.834 71.2268C376.21 69.3582 373.716 69.6696 373.716 70.6039C373.716 71.7458 373.404 73.9259 372.78 74.964C372.157 76.1059 372.053 76.7287 371.533 80.1545C371.013 83.5802 369.974 86.6945 372.468 92.7155Z" fill="#008BC6"/>
<path d="M376.834 71.0201C376.938 71.3315 377.042 71.7467 377.042 72.2658C376.938 75.4839 376.522 75.6915 376.21 83.1658" fill="#008BC6"/>
<path d="M465.078 96.6605C467.676 102.681 468.404 106.003 467.676 112.024C466.949 118.045 467.365 128.634 465.286 140.884C463.207 153.133 462.272 153.964 461.024 177.736C461.024 177.736 475.16 179.916 479.526 180.643C481.916 157.805 480.981 129.776 480.773 120.122C480.565 110.467 482.54 108.183 483.891 105.692C485.346 103.201 485.762 101.228 486.593 98.3215C487.425 95.4148 487.009 94.7919 488.049 91.6776C489.088 88.5633 490.023 81.1928 490.335 77.1442C490.647 73.0956 487.321 73.9261 486.801 76.6251C486.282 79.2204 485.242 82.8537 484.722 85.2414C484.307 87.2138 483.475 86.5909 483.579 85.449C483.683 84.4109 485.658 72.3689 486.074 69.3584C486.489 66.3479 483.267 66.6594 482.852 68.8394C482.436 71.1232 480.565 80.7775 480.357 81.608C480.149 82.4385 479.422 82.3347 479.526 81.608C479.629 80.7775 481.396 69.047 481.812 65.4136C482.228 61.7803 478.59 62.2993 478.278 63.8565C477.966 65.4136 475.68 76.1061 475.472 79.0128C475.264 81.9194 474.017 81.7118 473.913 80.3623C473.809 79.0128 475.056 67.5936 475.368 64.2717C475.784 60.9498 471.938 61.2612 471.626 63.4412C471.314 65.5174 469.443 74.7565 469.443 75.068C468.82 73.1994 466.325 73.5108 466.325 74.4451C466.325 75.587 466.013 77.767 465.39 78.8051C464.766 79.9471 464.662 80.5699 464.143 83.9957C463.519 87.3176 462.48 90.5357 465.078 96.6605Z" fill="#008BC6"/>
<path d="M469.443 74.9646C469.547 75.276 469.651 75.6913 469.651 76.2103C469.547 79.4284 469.132 79.636 468.82 87.1104" fill="#008BC6"/>
<path d="M443.459 93.0276C439.613 99.2562 438.158 102.682 437.95 109.43C437.638 116.177 435.455 127.804 435.559 141.611C435.663 155.418 436.703 156.559 433.896 182.927C433.896 182.927 417.994 182.927 413.005 182.927C414.356 157.39 420.176 126.766 422.151 116.177C424.126 105.589 422.255 102.786 421.216 99.7753C420.072 96.7648 419.968 94.4809 419.553 91.2628C419.137 87.9409 419.761 87.3181 419.137 83.7885C418.513 80.1551 418.825 71.9541 419.137 67.3865C419.449 62.8188 422.983 64.376 423.087 67.3865C423.191 70.397 423.71 74.5494 423.814 77.1446C423.918 79.3247 424.958 78.8056 425.061 77.5599C425.165 76.3142 425.061 62.8188 425.061 59.3931C425.061 55.9674 428.699 56.9017 428.699 59.3931C428.803 61.8846 429.115 72.8884 429.219 73.9265C429.219 74.8608 430.051 74.9646 430.154 74.0303C430.154 73.1999 430.258 59.9122 430.466 55.8636C430.674 51.815 434.52 53.0607 434.624 54.7216C434.624 56.4864 435.351 68.6322 435.04 71.9541C434.728 75.2761 436.183 75.1723 436.495 73.6151C436.911 72.1618 437.534 59.3931 437.638 55.6559C437.742 51.9188 441.9 52.9569 441.9 55.3445C441.9 57.7321 442.315 68.217 442.315 68.5284C443.355 66.556 445.953 67.2827 445.849 68.3208C445.745 69.5665 445.641 71.9541 446.161 73.3037C446.681 74.6532 446.681 75.3799 446.681 79.3247C446.785 83.0618 447.304 86.799 443.459 93.0276Z" fill="#008BC6" fill-opacity="0.5"/>
<path d="M582.425 100.191C579.827 106.42 579.099 109.741 579.931 115.866C580.658 121.991 580.45 132.891 582.633 145.348C584.816 157.806 585.855 158.636 587.414 182.928C587.414 182.928 573.071 185.315 568.497 186.042C565.899 162.685 566.523 134.137 566.627 124.171C566.73 114.205 564.756 112.025 563.3 109.43C561.845 106.835 561.43 104.862 560.494 101.956C559.663 99.049 560.078 98.4261 558.935 95.208C557.896 92.0937 556.856 84.5156 556.441 80.3632C556.025 76.2107 559.455 77.0412 559.974 79.7403C560.494 82.4394 561.637 86.0727 562.157 88.4603C562.573 90.4327 563.404 89.8099 563.404 88.668C563.3 87.5261 561.118 75.3803 560.702 72.266C560.182 69.1517 563.612 69.4631 564.028 71.7469C564.548 74.0307 566.523 83.8927 566.73 84.827C566.938 85.6575 567.666 85.6575 567.562 84.827C567.458 83.9965 565.483 71.9545 565.067 68.3212C564.652 64.584 568.393 65.1031 568.601 66.6602C568.809 68.2174 571.408 79.1174 571.616 82.1279C571.823 85.1384 573.071 84.827 573.175 83.4775C573.279 82.1279 571.927 70.3974 571.512 66.9716C571.096 63.5459 574.942 63.9611 575.357 66.0373C575.669 68.2174 577.644 77.5603 577.748 77.8717C578.372 75.8993 580.866 76.2107 580.97 77.145C581.074 78.287 581.282 80.467 582.01 81.6089C582.737 82.7508 582.737 83.4775 583.361 86.9032C583.984 90.3289 585.024 93.9623 582.425 100.191Z" fill="#008BC6" fill-opacity="0.5"/>
<path d="M343.054 90.1207C345.652 96.1417 346.38 99.4636 345.652 105.485C344.924 111.506 345.34 122.094 343.261 134.344C341.183 146.593 340.247 147.424 339 171.196C339 171.196 353.136 173.376 357.501 174.103C359.892 151.265 358.956 123.236 358.748 113.582C358.54 103.927 360.515 101.644 361.866 99.1522C363.322 96.6607 363.737 94.6883 364.569 91.7817C365.4 88.875 364.985 88.2521 366.024 85.1378C367.063 82.0235 367.999 74.653 368.311 70.6044C368.623 66.5558 365.296 67.3863 364.777 70.0853C364.257 72.6806 363.218 76.3139 362.698 78.7016C362.282 80.674 361.451 80.0511 361.555 78.9092C361.659 77.8711 363.633 65.8291 364.049 62.8186C364.465 59.8081 361.243 60.1196 360.827 62.2996C360.411 64.5834 358.54 74.2377 358.333 75.0682C358.125 75.8987 357.397 75.7949 357.501 75.0682C357.605 74.2377 359.372 62.5072 359.788 58.8738C360.203 55.2405 356.566 55.7595 356.254 57.3167C355.942 58.8738 353.655 69.5663 353.447 72.473C353.24 75.3797 351.992 75.172 351.888 73.8225C351.784 72.473 353.032 61.0538 353.343 57.7319C353.759 54.41 349.913 54.7214 349.602 56.9014C349.29 58.9776 347.419 68.2167 347.419 68.5282C346.795 66.6596 344.301 66.971 344.301 67.9053C344.301 69.0472 343.989 71.2272 343.365 72.2653C342.742 73.4073 342.638 74.0301 342.118 77.4559C341.598 80.8816 340.559 84.0997 343.054 90.1207Z" fill="#008BC6" fill-opacity="0.5"/>
<path d="M347.419 68.5282C347.523 68.8396 347.627 69.2549 347.627 69.7739C347.523 72.9921 347.107 73.0959 346.795 80.674" fill="#008BC6" fill-opacity="0.5"/>
<path d="M261.337 97.9992C258.531 104.539 257.803 108.069 258.531 114.609C259.258 121.149 258.946 132.568 261.129 145.752C263.312 158.936 264.455 159.87 265.806 185.615C265.806 185.615 250.527 188.003 245.746 188.729C243.252 164.022 244.187 133.814 244.395 123.329C244.603 112.844 242.524 110.456 240.965 107.757C239.406 105.058 238.99 102.878 238.055 99.7639C237.119 96.6496 237.639 96.0268 236.496 92.601C235.352 89.1753 234.417 81.2857 234.001 76.9257C233.689 72.4619 237.223 73.3962 237.743 76.3028C238.262 79.1057 239.406 83.0505 239.926 85.5419C240.341 87.6181 241.277 86.9953 241.173 85.7496C241.069 84.6077 238.886 71.6314 238.47 68.4133C237.951 65.0913 241.485 65.4028 242.004 67.8942C242.524 70.2818 244.499 80.7667 244.707 81.701C244.915 82.6353 245.746 82.5315 245.642 81.701C245.538 80.8705 243.563 68.1018 243.148 64.157C242.732 60.2123 246.682 60.8351 246.993 62.4961C247.305 64.1571 249.8 75.68 250.008 78.8981C250.216 82.1162 251.567 81.8048 251.671 80.3514C251.775 78.8981 250.527 66.5447 250.112 62.9113C249.696 59.278 253.853 59.6932 254.165 61.977C254.477 64.2609 256.556 74.2266 256.556 74.5381C257.283 72.4619 259.882 72.7733 259.882 73.8114C259.882 74.9533 260.194 77.3409 260.921 78.5867C261.649 79.8324 261.753 80.5591 262.272 84.2962C263 88.0334 264.143 91.4591 261.337 97.9992Z" fill="#E5CBB5"/>
<path opacity="0.25" d="M257.387 87.7223C256.972 79.5213 256.66 79.4175 256.452 75.8879C256.452 75.3689 256.452 74.9536 256.66 74.5384" stroke="#603813" stroke-miterlimit="10"/>
<path d="M259.469 116.907L243.391 117.916L243.547 120.402L259.625 119.394L259.469 116.907Z" fill="#B25ECF"/>
<path d="M175.691 66.6486C180.264 74.0191 181.927 78.1715 182.239 86.2687C182.551 94.3659 185.253 108.173 185.046 124.575C184.838 140.977 183.694 142.326 187.02 173.781C187.02 173.781 205.937 173.781 211.862 173.781C210.199 143.364 203.339 106.823 200.948 94.1583C198.558 81.4935 200.74 78.1715 202.092 74.5382C203.443 70.9048 203.547 68.3096 204.066 64.3648C204.586 60.42 203.858 59.6933 204.586 55.4371C205.314 51.1809 205.002 41.3189 204.586 35.9208C204.17 30.5227 200.013 32.2874 199.909 35.9208C199.805 39.4503 199.181 44.4332 198.973 47.6513C198.869 50.2466 197.622 49.6237 197.518 48.1704C197.414 46.717 197.622 30.6265 197.518 26.5779C197.414 22.5293 193.257 23.5674 193.153 26.5779C193.049 29.5884 192.633 42.6684 192.529 43.8104C192.425 44.9523 191.49 45.0561 191.386 44.018C191.282 42.9799 191.282 27.0969 191.074 22.3217C190.866 17.4426 186.189 18.8959 186.085 20.9721C185.981 23.0483 185.253 37.5818 185.565 41.5265C185.877 45.4713 184.214 45.2637 183.798 43.6027C183.382 41.838 182.551 26.5779 182.447 22.114C182.343 17.6502 177.354 18.8959 177.354 21.8026C177.354 24.6055 176.834 37.1665 176.834 37.4779C175.587 35.0903 172.469 36.0246 172.573 37.2703C172.781 38.7237 172.885 41.6303 172.261 43.1875C171.637 44.7447 171.637 45.6789 171.637 50.3504C171.637 55.0219 171.014 59.2781 175.691 66.6486Z" fill="#E0BFA9"/>
<path opacity="0.25" d="M178.498 53.4652C177.354 43.4994 177.77 43.188 177.354 38.9318C177.25 38.3089 177.146 37.7899 176.938 37.3746" stroke="#603813" stroke-miterlimit="10"/>
<path d="M203.35 102.847L183.615 104.992L183.885 107.469L203.62 105.324L203.35 102.847Z" fill="#926EE0"/>
<path d="M170.494 105.059C167.688 111.599 166.96 115.129 167.688 121.669C168.415 128.209 168.103 139.628 170.286 152.812C172.469 165.996 173.612 166.93 174.963 192.675C174.963 192.675 159.684 195.062 154.903 195.789C152.409 171.082 153.344 140.874 153.552 130.389C153.76 119.904 151.681 117.516 150.122 114.817C148.563 112.118 148.147 109.938 147.212 106.824C146.276 103.71 146.796 103.087 145.653 99.6609C144.509 96.339 143.574 88.3456 143.158 83.9856C142.846 79.5217 146.38 80.456 146.9 83.3627C147.42 86.1656 148.563 90.1104 149.083 92.6018C149.498 94.678 150.434 94.0552 150.33 92.8094C150.226 91.6675 148.043 78.6913 147.628 75.4731C147.212 72.255 150.642 72.4626 151.161 74.9541C151.681 77.3417 153.656 87.8265 153.864 88.7608C154.072 89.6951 154.903 89.5913 154.799 88.7608C154.695 87.9304 152.721 75.1617 152.305 71.2169C151.889 67.2721 155.839 67.895 156.151 69.556C156.462 71.2169 158.957 82.7399 159.165 85.958C159.373 89.1761 160.724 88.8647 160.828 87.4113C160.932 85.958 159.684 73.6046 159.269 69.9712C158.853 66.3378 163.01 66.7531 163.322 69.0369C163.634 71.3207 165.713 81.2865 165.713 81.5979C166.44 79.5217 169.039 79.8332 169.039 80.8713C169.039 82.0132 169.351 84.4008 170.078 85.6465C170.806 86.8923 170.91 87.6189 171.43 91.3561C171.949 95.0933 173.3 98.519 170.494 105.059Z" fill="#AD9873"/>
<path opacity="0.25" d="M166.544 94.7812C166.129 86.5802 165.817 86.4764 165.609 82.9469C165.609 82.4278 165.609 82.0126 165.817 81.5974" stroke="#603813" stroke-miterlimit="10"/>
<path d="M169.559 142.118H152.513V144.61H169.559V142.118Z" fill="#5DB6CC"/>
<path d="M119.772 86.9955C116.654 94.366 115.718 98.3108 116.55 105.681C117.381 113.052 116.965 125.924 119.46 140.769C121.955 155.614 123.202 156.652 124.657 185.615C124.657 185.615 107.507 188.314 102.102 189.145C99.2958 161.324 100.335 127.274 100.543 115.543C100.855 103.709 98.4643 101.114 96.6974 97.9994C95.0343 94.8851 94.5146 92.6013 93.4752 89.0717C92.4358 85.5422 93.0595 84.8155 91.7083 81.0783C90.461 77.3412 89.3177 68.3097 88.9019 63.4306C88.4862 58.4477 92.5398 59.4858 93.1634 62.8077C93.7871 66.0259 95.0343 70.3859 95.658 73.2926C96.1777 75.6802 97.217 74.8497 97.1131 73.604C97.0092 72.2545 94.5146 57.721 93.9949 54.0877C93.4752 50.4543 97.4249 50.7658 97.9446 53.4648C98.4643 56.1639 100.751 67.9983 100.959 69.0364C101.167 70.0745 102.102 69.9706 101.998 69.0364C101.894 68.1021 99.7116 53.7763 99.1919 49.3124C98.6722 44.8486 103.142 45.5753 103.453 47.4438C103.765 49.3124 106.572 62.2887 106.883 65.922C107.195 69.5554 108.65 69.1402 108.754 67.4792C108.858 65.8182 107.403 51.9077 106.987 47.8591C106.572 43.8105 111.145 44.2257 111.561 46.821C111.976 49.4162 114.159 60.6277 114.263 60.9392C115.095 58.6553 118.005 58.9668 118.109 60.1087C118.213 61.4582 118.525 64.0535 119.252 65.403C120.084 66.7525 120.188 67.583 120.811 71.7354C121.643 75.6802 122.89 79.625 119.772 86.9955Z" fill="#736357"/>
<path opacity="0.72" d="M115.302 75.4729C114.887 66.2338 114.471 66.13 114.263 62.1852C114.263 61.5624 114.263 61.1471 114.471 60.7319" stroke="#42210B" stroke-miterlimit="10"/>
<path d="M117.486 115.003L100.267 116.083L100.423 118.569L117.643 117.49L117.486 115.003Z" fill="#81C977"/>
<path d="M50.7563 104.332C53.5626 111.08 54.2902 114.61 53.4587 121.253C52.6272 127.897 52.8351 139.628 50.4445 153.123C48.0539 166.618 46.9105 167.553 45.3514 193.817C45.3514 193.817 60.9423 196.412 65.7235 197.242C68.5299 172.017 67.9062 141.081 67.6983 130.389C67.4905 119.696 69.7771 117.309 71.3362 114.506C72.8953 111.703 73.415 109.627 74.3504 106.409C75.2859 103.19 74.7662 102.568 76.0135 99.1419C77.1568 95.7161 78.3001 87.6189 78.7159 83.1551C79.1316 78.6913 75.3898 79.5217 74.8701 82.5322C74.3504 85.4389 73.1032 89.3837 72.4795 91.979C71.9599 94.159 71.1283 93.4323 71.2323 92.1866C71.3362 91.0447 73.7268 77.757 74.2465 74.435C74.7662 71.1131 71.1283 71.3207 70.6086 73.8122C70.0889 76.3036 67.9062 86.9961 67.6983 87.9304C67.4905 88.8647 66.659 88.7608 66.7629 87.9304C66.8668 87.0999 68.9456 74.0198 69.4653 70.075C69.985 66.1302 65.9314 66.6493 65.6196 68.3102C65.3077 69.9712 62.6053 81.8056 62.3975 85.0237C62.0856 88.3456 60.8384 87.9304 60.6305 86.477C60.5266 85.0237 61.9817 72.3588 62.5014 68.7255C63.0211 65.0921 58.7596 65.4035 58.3438 67.7912C57.9281 70.075 55.8493 80.3522 55.7453 80.5598C55.0178 78.4836 52.3154 78.7951 52.3154 79.8332C52.2114 81.0789 51.8996 83.4665 51.172 84.7122C50.4445 85.958 50.3405 86.6846 49.7169 90.5256C49.0933 94.0552 47.9499 97.5847 50.7563 104.332Z" fill="#DCBEA4"/>
<path opacity="0.25" d="M54.9138 93.8473C55.3296 85.5425 55.7453 85.3349 55.9532 81.8053C55.9532 81.2863 55.9532 80.7672 55.7453 80.4558" stroke="#603813" stroke-miterlimit="10"/>
<path d="M68.3672 127.544L52.3782 126.8L52.2621 129.289L68.2511 130.033L68.3672 127.544Z" fill="#F6CD29"/>
<path d="M34.0222 94.3662C30.0725 100.802 28.6174 104.332 28.3055 111.287C27.9937 118.243 25.7071 130.181 25.9149 144.403C26.1228 158.625 27.0583 159.767 24.2519 186.861C24.2519 186.861 7.93347 186.861 2.84045 186.861C4.2956 160.597 10.2201 129.143 12.195 118.139C14.1698 107.239 12.2989 104.332 11.1556 101.218C10.0123 98.1033 9.90831 95.8195 9.49256 92.3938C9.0768 88.968 9.70043 88.3452 9.0768 84.7118C8.45317 80.9747 8.76498 72.4622 9.0768 67.8946C9.38862 63.2231 13.0265 64.7803 13.1304 67.8946C13.2344 70.9051 13.7541 75.1613 13.9619 77.9642C14.0659 80.248 15.1053 79.6251 15.2092 78.4832C15.3131 77.2375 15.2092 63.3269 15.2092 59.7974C15.2092 56.2678 18.951 57.2021 18.951 59.7974C19.055 62.3926 19.4707 73.708 19.4707 74.7461C19.4707 75.7842 20.4062 75.7842 20.4062 74.8499C20.4062 73.9156 20.5101 60.3164 20.718 56.164C20.9259 52.0116 24.9795 53.2573 24.9795 55.0221C24.9795 56.7869 25.7071 69.3479 25.4992 72.6699C25.1874 76.0956 26.6425 75.888 27.0583 74.4346C27.474 72.9813 28.0977 59.7974 28.2016 55.9564C28.3055 52.1154 32.567 53.2573 32.567 55.645C32.567 58.0326 32.9828 68.8289 32.9828 69.1403C34.0222 67.0641 36.7246 67.8946 36.6207 68.9327C36.5167 70.1784 36.4128 72.6699 36.9325 74.0194C37.4522 75.3689 37.4522 76.1994 37.4522 80.1442C37.4522 84.089 37.9719 88.0338 34.0222 94.3662Z" fill="#827063"/>
<path opacity="0.35" d="M31.5276 83.0507C32.463 74.4345 32.1512 74.2268 32.567 70.4897C32.6709 69.9706 32.7749 69.4516 32.9827 69.1401" stroke="#603813" stroke-miterlimit="10"/>
<path d="M28.0686 119.871L11.4114 118.275L11.173 120.755L27.8302 122.351L28.0686 119.871Z" fill="#ED9B43"/>
<path d="M296.572 113.259C293.766 119.799 293.038 123.329 293.766 129.869C294.494 136.409 294.182 147.828 296.364 161.012C298.547 174.196 299.691 175.13 301.042 200.875C301.042 200.875 285.763 203.263 280.981 203.99C278.487 179.283 279.422 149.074 279.63 138.589C279.838 128.104 277.759 125.717 276.2 123.018C274.641 120.319 274.225 118.139 273.29 115.024C272.355 111.91 272.874 111.287 271.731 107.861C270.588 104.539 269.652 96.546 269.236 92.186C268.925 87.7221 272.458 88.6564 272.978 91.5631C273.498 94.366 274.641 98.3108 275.161 100.802C275.577 102.878 276.512 102.256 276.408 101.01C276.304 99.8679 274.121 86.8916 273.706 83.6735C273.186 80.3516 276.72 80.663 277.24 83.1545C277.759 85.5421 279.734 96.0269 279.942 96.9612C280.15 97.8955 280.981 97.7917 280.878 96.9612C280.774 96.1307 278.799 83.3621 278.383 79.4173C277.967 75.4725 281.917 76.0954 282.229 77.7563C282.541 79.4173 285.035 90.9402 285.243 94.1584C285.451 97.3765 286.802 97.065 286.906 95.6117C287.01 94.1584 285.763 81.8049 285.347 78.1716C284.931 74.5382 289.089 74.9535 289.401 77.2373C289.712 79.5211 291.791 89.4869 291.791 89.7983C292.519 87.7221 295.117 88.0335 295.117 89.0717C295.117 90.2136 295.429 92.6012 296.157 93.8469C296.884 95.0926 296.988 95.8193 297.508 99.5565C298.235 103.19 299.275 106.719 296.572 113.259Z" fill="#BFAC94"/>
<path opacity="0.25" d="M292.519 102.983C292.103 94.7816 291.791 94.6778 291.583 91.1482C291.583 90.6292 291.583 90.2139 291.791 89.7987" stroke="#603813" stroke-miterlimit="10"/>
<path d="M294.284 131.566L278.828 132.535L278.984 135.022L294.44 134.053L294.284 131.566Z" fill="#DD375B"/>
<path d="M517.749 66.6486C522.322 74.0191 523.985 78.1715 524.297 86.2687C524.609 94.3659 527.311 108.173 527.104 124.575C526.896 140.977 525.752 142.326 529.078 173.781C529.078 173.781 547.995 173.781 553.92 173.781C552.257 143.364 545.397 106.823 543.006 94.1583C540.616 81.4935 542.798 78.1715 544.15 74.5382C545.501 70.9048 545.605 68.3096 546.124 64.3648C546.644 60.42 545.916 59.6933 546.644 55.4371C547.372 51.1809 547.06 41.3189 546.644 35.9208C546.228 30.5227 542.071 32.2874 541.967 35.9208C541.863 39.4503 541.239 44.4332 541.031 47.6513C540.927 50.2466 539.68 49.6237 539.576 48.1704C539.472 46.717 539.68 30.6265 539.576 26.5779C539.472 22.5293 535.315 23.5674 535.211 26.5779C535.107 29.5884 534.691 42.6684 534.587 43.8104C534.483 44.9523 533.548 45.0561 533.444 44.018C533.34 42.9799 533.34 27.0969 533.132 22.3217C532.924 17.4426 528.247 18.8959 528.143 20.9721C528.039 23.0483 527.311 37.5818 527.623 41.5265C527.935 45.4713 526.272 45.2637 525.856 43.6027C525.44 41.838 524.609 26.5779 524.505 22.114C524.401 17.6502 519.412 18.8959 519.412 21.8026C519.412 24.6055 518.892 37.1665 518.892 37.4779C517.645 35.0903 514.527 36.0246 514.631 37.2703C514.839 38.7237 514.943 41.6303 514.319 43.1875C513.695 44.7447 513.695 45.6789 513.695 50.3504C513.695 55.0219 513.072 59.2781 517.749 66.6486Z" fill="#E0BFA9"/>
<path opacity="0.25" d="M520.555 53.4652C519.412 43.4994 519.828 43.188 519.412 38.9318C519.308 38.3089 519.204 37.7899 518.996 37.3746" stroke="#603813" stroke-miterlimit="10"/>
<path d="M545.408 102.847L525.673 104.992L525.943 107.469L545.678 105.324L545.408 102.847Z" fill="#926EE0"/>
<path d="M512.552 105.059C509.746 111.599 509.018 115.129 509.746 121.669C510.473 128.209 510.161 139.628 512.344 152.812C514.527 165.996 515.67 166.93 517.021 192.675C517.021 192.675 501.742 195.062 496.961 195.789C494.467 171.082 495.402 140.874 495.61 130.389C495.818 119.904 493.739 117.516 492.18 114.817C490.621 112.118 490.205 109.938 489.27 106.824C488.334 103.71 488.854 103.087 487.711 99.6609C486.567 96.339 485.632 88.3456 485.216 83.9856C484.904 79.5217 488.438 80.456 488.958 83.3627C489.478 86.1656 490.621 90.1104 491.141 92.6018C491.556 94.678 492.492 94.0552 492.388 92.8094C492.284 91.6675 490.101 78.6913 489.685 75.4731C489.27 72.255 492.7 72.4626 493.219 74.9541C493.739 77.3417 495.714 87.8265 495.922 88.7608C496.13 89.6951 496.961 89.5913 496.857 88.7608C496.753 87.9304 494.778 75.1617 494.363 71.2169C493.947 67.2721 497.897 67.895 498.208 69.556C498.52 71.2169 501.015 82.7399 501.223 85.958C501.431 89.1761 502.782 88.8647 502.886 87.4113C502.99 85.958 501.742 73.6046 501.327 69.9712C500.911 66.3378 505.068 66.7531 505.38 69.0369C505.692 71.3207 507.771 81.2865 507.771 81.5979C508.498 79.5217 511.097 79.8332 511.097 80.8713C511.097 82.0132 511.409 84.4008 512.136 85.6465C512.864 86.8923 512.968 87.6189 513.488 91.3561C514.007 95.0933 515.358 98.519 512.552 105.059Z" fill="#AD9873"/>
<path opacity="0.25" d="M508.602 94.7812C508.187 86.5802 507.875 86.4764 507.667 82.9469C507.667 82.4278 507.667 82.0126 507.875 81.5974" stroke="#603813" stroke-miterlimit="10"/>
<path d="M511.617 142.118H494.571V144.61H511.617V142.118Z" fill="#5DB6CC"/>
<path d="M461.83 86.9955C458.712 94.366 457.776 98.3108 458.608 105.681C459.439 113.052 459.023 125.924 461.518 140.769C464.013 155.614 465.26 156.652 466.715 185.615C466.715 185.615 449.565 188.314 444.16 189.145C441.354 161.324 442.393 127.274 442.601 115.543C442.913 103.709 440.522 101.114 438.755 97.9994C437.092 94.8851 436.573 92.6013 435.533 89.0717C434.494 85.5422 435.117 84.8155 433.766 81.0783C432.519 77.3412 431.376 68.3097 430.96 63.4306C430.544 58.4477 434.598 59.4858 435.221 62.8077C435.845 66.0259 437.092 70.3859 437.716 73.2926C438.236 75.6802 439.275 74.8497 439.171 73.604C439.067 72.2545 436.573 57.721 436.053 54.0877C435.533 50.4543 439.483 50.7658 440.003 53.4648C440.522 56.1639 442.809 67.9983 443.017 69.0364C443.225 70.0745 444.16 69.9706 444.056 69.0364C443.952 68.1021 441.77 53.7763 441.25 49.3124C440.73 44.8486 445.2 45.5753 445.511 47.4438C445.823 49.3124 448.63 62.2887 448.941 65.922C449.253 69.5554 450.708 69.1402 450.812 67.4792C450.916 65.8182 449.461 51.9077 449.045 47.8591C448.63 43.8105 453.203 44.2257 453.619 46.821C454.034 49.4162 456.217 60.6277 456.321 60.9392C457.153 58.6553 460.063 58.9668 460.167 60.1087C460.271 61.4582 460.583 64.0535 461.31 65.403C462.142 66.7525 462.246 67.583 462.869 71.7354C463.701 75.6802 464.948 79.625 461.83 86.9955Z" fill="#736357"/>
<path opacity="0.72" d="M457.36 75.4729C456.945 66.2338 456.529 66.13 456.321 62.1852C456.321 61.5624 456.321 61.1471 456.529 60.7319" stroke="#42210B" stroke-miterlimit="10"/>
<path d="M459.544 115.003L442.325 116.083L442.481 118.569L459.7 117.49L459.544 115.003Z" fill="#81C977"/>
<path d="M392.814 104.332C395.621 111.08 396.348 114.61 395.517 121.253C394.685 127.897 394.893 139.628 392.502 153.123C390.112 166.618 388.969 167.553 387.409 193.817C387.409 193.817 403 196.412 407.781 197.242C410.588 172.017 409.964 141.081 409.756 130.389C409.548 119.696 411.835 117.309 413.394 114.506C414.953 111.703 415.473 109.627 416.408 106.409C417.344 103.19 416.824 102.568 418.071 99.1419C419.215 95.7161 420.358 87.6189 420.774 83.1551C421.19 78.6913 417.448 79.5217 416.928 82.5322C416.408 85.4389 415.161 89.3837 414.538 91.979C414.018 94.159 413.186 93.4323 413.29 92.1866C413.394 91.0447 415.785 77.757 416.304 74.435C416.824 71.1131 413.186 71.3207 412.667 73.8122C412.147 76.3036 409.964 86.9961 409.756 87.9304C409.548 88.8647 408.717 88.7608 408.821 87.9304C408.925 87.0999 411.004 74.0198 411.523 70.075C412.043 66.1302 407.989 66.6493 407.678 68.3102C407.366 69.9712 404.663 81.8056 404.455 85.0237C404.144 88.3456 402.896 87.9304 402.688 86.477C402.585 85.0237 404.04 72.3588 404.559 68.7255C405.079 65.0921 400.818 65.4035 400.402 67.7912C399.986 70.075 397.907 80.3522 397.803 80.5598C397.076 78.4836 394.373 78.7951 394.373 79.8332C394.269 81.0789 393.958 83.4665 393.23 84.7122C392.502 85.958 392.399 86.6846 391.775 90.5256C391.151 94.0552 390.008 97.5847 392.814 104.332Z" fill="#DCBEA4"/>
<path opacity="0.25" d="M396.972 93.8473C397.388 85.5425 397.803 85.3349 398.011 81.8053C398.011 81.2863 398.011 80.7672 397.803 80.4558" stroke="#603813" stroke-miterlimit="10"/>
<path d="M410.425 127.544L394.436 126.8L394.32 129.289L410.309 130.033L410.425 127.544Z" fill="#F6CD29"/>
<path d="M376.08 94.3662C372.13 100.802 370.675 104.332 370.364 111.287C370.052 118.243 367.765 130.181 367.973 144.403C368.181 158.625 369.116 159.767 366.31 186.861C366.31 186.861 349.991 186.861 344.898 186.861C346.354 160.597 352.278 129.143 354.253 118.139C356.228 107.239 354.357 104.332 353.214 101.218C352.07 98.1033 351.966 95.8195 351.551 92.3938C351.135 88.968 351.758 88.3452 351.135 84.7118C350.511 80.9747 350.823 72.4622 351.135 67.8946C351.447 63.2231 355.084 64.7803 355.188 67.8946C355.292 70.9051 355.812 75.1613 356.02 77.9642C356.124 80.248 357.163 79.6251 357.267 78.4832C357.371 77.2375 357.267 63.3269 357.267 59.7974C357.267 56.2678 361.009 57.2021 361.009 59.7974C361.113 62.3926 361.529 73.708 361.529 74.7461C361.529 75.7842 362.464 75.7842 362.464 74.8499C362.464 73.9156 362.568 60.3164 362.776 56.164C362.984 52.0116 367.037 53.2573 367.037 55.0221C367.037 56.7869 367.765 69.3479 367.557 72.6699C367.245 76.0956 368.7 75.888 369.116 74.4346C369.532 72.9813 370.156 59.7974 370.26 55.9564C370.364 52.1154 374.625 53.2573 374.625 55.645C374.625 58.0326 375.041 68.8289 375.041 69.1403C376.08 67.0641 378.783 67.8946 378.679 68.9327C378.575 70.1784 378.471 72.6699 378.99 74.0194C379.51 75.3689 379.51 76.1994 379.51 80.1442C379.51 84.089 380.03 88.0338 376.08 94.3662Z" fill="#827063"/>
<path opacity="0.35" d="M373.586 83.0507C374.521 74.4345 374.209 74.2268 374.625 70.4897C374.729 69.9706 374.833 69.4516 375.041 69.1401" stroke="#603813" stroke-miterlimit="10"/>
<path d="M370.127 119.871L353.469 118.275L353.231 120.755L369.888 122.351L370.127 119.871Z" fill="#ED9B43"/>
<path d="M333.673 113.26C330.347 118.865 329.204 121.98 328.996 128.001C328.892 134.022 327.125 144.403 327.437 156.652C327.748 168.902 328.684 169.94 326.605 193.401C326.605 193.401 312.469 193.712 308 193.712C308.832 170.978 313.509 143.572 315.068 134.022C316.627 124.471 314.964 122.083 313.925 119.384C312.885 116.685 312.781 114.713 312.262 111.806C311.846 108.899 312.365 108.277 311.742 105.162C311.326 102.048 311.43 94.6775 311.638 90.6289C311.846 86.5803 315.068 87.826 315.172 90.5251C315.276 93.2241 315.795 96.8575 316.003 99.2451C316.107 101.218 317.043 100.698 317.147 99.6604C317.251 98.6223 316.835 86.5803 316.835 83.466C316.835 80.4555 319.953 81.1822 320.161 83.3622C320.265 85.646 320.785 95.4042 320.888 96.2346C320.992 97.0651 321.72 97.1689 321.72 96.3384C321.72 95.508 321.616 83.6736 321.616 80.1441C321.72 76.5107 325.254 77.5488 325.254 79.106C325.358 80.6631 326.189 91.4594 325.981 94.4699C325.774 97.3765 327.021 97.2727 327.333 95.9232C327.644 94.5737 327.956 83.1546 328.06 79.8326C328.164 76.5107 331.802 77.3412 331.906 79.5212C331.906 81.5974 332.53 90.9403 332.53 91.2517C333.465 89.487 335.752 90.1098 335.648 91.0441C335.544 92.0822 335.544 94.2622 335.96 95.508C336.479 96.6499 336.479 97.3766 336.479 100.802C336.479 104.332 337.103 107.654 333.673 113.26Z" fill="#E5CBB5"/>
<path opacity="0.25" d="M331.386 103.398C332.114 95.9236 331.802 95.7159 332.114 92.4978C332.114 91.9788 332.322 91.6673 332.426 91.3559" stroke="#603813" stroke-miterlimit="10"/>
<path d="M330.741 135.341L314.083 133.744L313.845 136.224L330.502 137.821L330.741 135.341Z" fill="#DB643A"/>
</g>
</svg>
